<svg xmlns="http://www.w3.org/2000/svg" width="361.001" height="120.007" viewBox="0 0 361.001 120.007">
  <g id="ICON_03" transform="translate(180.5 60.004)">
    <g id="Gruppe_1800" data-name="Gruppe 1800" transform="translate(-175.5 -60.004)">
      <path id="Pfad_7065" data-name="Pfad 7065" d="M210.616,0a60,60,0,1,0,60,60A60,60,0,0,0,210.616,0Zm39.392,77.875L237.467,90.416a2.6,2.6,0,0,1-1.84.76H172.143a1.3,1.3,0,0,1-.92-2.22l12.541-12.541a2.6,2.6,0,0,1,1.84-.76h63.484A1.3,1.3,0,0,1,250.008,77.875Zm-.92-10.261H185.6a2.6,2.6,0,0,1-1.84-.76L171.223,54.314a1.3,1.3,0,0,1,.92-2.22h63.484a2.6,2.6,0,0,1,1.84.76l12.541,12.541A1.3,1.3,0,0,1,249.088,67.614Zm.92-36.562L237.467,43.593a2.6,2.6,0,0,1-1.84.76H172.143a1.3,1.3,0,0,1-.92-2.22l12.541-12.541a2.675,2.675,0,0,1,1.84-.76h63.484A1.3,1.3,0,0,1,250.008,31.052Z" transform="translate(-35.115)" fill="#00d2c8"/>
      <line id="Linie_350" data-name="Linie 350" x2="40.002" transform="translate(250.994 60.004)" fill="none" stroke="#00d2c8" stroke-width="10.001"/>
      <line id="Linie_351" data-name="Linie 351" x2="40.002" transform="translate(60.004 60.004)" fill="none" stroke="#00d2c8" stroke-width="10.001"/>
      <circle id="Ellipse_382" data-name="Ellipse 382" cx="30.002" cy="30.002" r="30.002" transform="translate(0 30.002)" fill="none" stroke="#00d2c8" stroke-width="10.001"/>
      <circle id="Ellipse_383" data-name="Ellipse 383" cx="30.002" cy="30.002" r="30.002" transform="translate(290.996 30.002)" fill="#00d2c8" stroke="#00d2c8" stroke-width="10.001"/>
    </g>
  </g>
</svg>
