<svg xmlns="http://www.w3.org/2000/svg" width="33.019" height="25" viewBox="0 0 33.019 25">
  <g id="SOCIAL_DISCORD_01" transform="translate(16.509 12.5)">
    <path id="Pfad_2062" data-name="Pfad 2062" d="M27.91,2.33A31.221,31.221,0,0,0,21.155,0l-.841,2.033a13.008,13.008,0,0,0-7.608,0h0L11.864,0A31.221,31.221,0,0,0,5.108,2.33C1.271,7.824-.412,12.5.085,20.941A28.323,28.323,0,0,0,8.5,25s.928-1.646,1.634-2.722a18.2,18.2,0,0,1-2.574-1.287L8.2,20.5h0a18.608,18.608,0,0,0,16.616,0h0l.644.495a18.2,18.2,0,0,1-2.574,1.287C23.592,23.354,24.521,25,24.521,25a28.323,28.323,0,0,0,8.413-4.059C33.43,12.5,31.747,7.824,27.91,2.33Zm-16.84,15a3.166,3.166,0,0,1-3.007-3.3,3.166,3.166,0,0,1,3.007-3.3,3.166,3.166,0,0,1,3.007,3.3A3.166,3.166,0,0,1,11.071,17.328Zm10.877,0a3.166,3.166,0,0,1-3.007-3.3,3.166,3.166,0,0,1,3.007-3.3,3.166,3.166,0,0,1,3.007,3.3A3.166,3.166,0,0,1,21.948,17.328Z" transform="translate(-16.509 -12.5)" fill="#fff"/>
  </g>
</svg>
