<svg xmlns="http://www.w3.org/2000/svg" width="130" height="130" viewBox="0 0 130 130">
  <g id="DOLLAR" transform="translate(65 65)">
    <path id="Pfad_6916" data-name="Pfad 6916" d="M65,0a65,65,0,1,0,65,65A65,65,0,0,0,65,0ZM89.054,92.144q-4.888,5.636-13.888,8.069v12.454H54.786V101.773A80.462,80.462,0,0,1,38.151,98.9V81.536A70.113,70.113,0,0,0,49.313,83.9a83.56,83.56,0,0,0,11.21.9q6.617,0,9.122-1.261a4.026,4.026,0,0,0,2.5-3.748,3.828,3.828,0,0,0-.633-2.262,5.4,5.4,0,0,0-2.357-1.629,30.843,30.843,0,0,0-5.035-1.456L57.412,72.93Q46.421,70.544,41.24,65.295T36.058,51.333a20.274,20.274,0,0,1,4.7-13.693q4.693-5.473,14.031-7.8v-12.5h20.38v10.8a78.53,78.53,0,0,1,14.642,1.85V47.342a56,56,0,0,0-8.268-1.556,75.744,75.744,0,0,0-9-.581q-8.32,0-11.505,1.361T57.85,50.358a3.573,3.573,0,0,0,.533,2.019,4.524,4.524,0,0,0,1.924,1.439,23.489,23.489,0,0,0,4.06,1.261l6.717,1.508q12.005,2.574,17.433,7.9t5.425,13.984A20.2,20.2,0,0,1,89.054,92.144Z" transform="translate(-65 -65)" fill="#fff"/>
  </g>
</svg>
