<svg xmlns="http://www.w3.org/2000/svg" width="283.461" height="84.849" viewBox="0 0 283.461 84.849">
  <g id="LOGO_BOLD_CLAIM_01" transform="translate(141.731 42.424)">
    <g id="Gruppe_664" data-name="Gruppe 664" transform="translate(-141.731 -42.424)">
      <path id="Pfad_2348" data-name="Pfad 2348" d="M25.3,33.889,37.031,22.16a.587.587,0,0,0,.171-.413V18.513a.585.585,0,0,0-.813-.539L24.66,22.928a.585.585,0,0,0-.357.539V33.476A.584.584,0,0,0,25.3,33.889Z" fill="#fff"/>
      <path id="Pfad_2349" data-name="Pfad 2349" d="M54.367,37.421l-3.355-3.355a.584.584,0,0,0-.827,0L30.563,53.687a1.21,1.21,0,0,1-1.71,0L25.3,50.136a.584.584,0,0,0-1,.413V56.37a.587.587,0,0,0,.359.54l11.73,4.9a.585.585,0,0,0,.81-.54V55.914a1.208,1.208,0,0,1,.354-.855L54.367,38.248A.585.585,0,0,0,54.367,37.421Z" fill="#fff"/>
      <path id="Pfad_2350" data-name="Pfad 2350" d="M55.005,45.958,43.275,57.687a.585.585,0,0,0-.171.413v3.171a.585.585,0,0,0,.81.54l11.73-4.9A.587.587,0,0,0,56,56.37v-10A.584.584,0,0,0,55.005,45.958Z" fill="#fff"/>
      <path id="Pfad_2351" data-name="Pfad 2351" d="M39.88,0A39.88,39.88,0,1,0,79.759,39.879,39.88,39.88,0,0,0,39.88,0ZM61.906,59.884A1.209,1.209,0,0,1,61.163,61L40.62,69.585a1.205,1.205,0,0,1-.932,0L19.145,61a1.209,1.209,0,0,1-.744-1.116V19.967a1.211,1.211,0,0,1,.739-1.114l20.543-8.677a1.21,1.21,0,0,1,.941,0l20.544,8.677a1.21,1.21,0,0,1,.738,1.114Z" fill="#fff"/>
      <path id="Pfad_2352" data-name="Pfad 2352" d="M55.646,22.928,43.917,17.974a.585.585,0,0,0-.813.539v5.42a1.21,1.21,0,0,1-.354.855L25.939,41.6a.584.584,0,0,0,0,.827l3.355,3.356a.585.585,0,0,0,.827,0L49.743,26.16a1.21,1.21,0,0,1,1.71,0l3.552,3.551a.584.584,0,0,0,1-.413V23.467A.585.585,0,0,0,55.646,22.928Z" fill="#fff"/>
      <path id="Pfad_2353" data-name="Pfad 2353" d="M110.163,19.621c-8.215,0-13.9,4.783-13.9,10.073V34.14c0,5.346,3.546,8.215,8.667,8.215H115.4a2.518,2.518,0,0,1,2.758,2.758v4.951c0,2.983-3.658,4.728-7.992,4.728s-7.99-1.745-7.99-4.728v-.731a1.129,1.129,0,0,0-1.125-1.126H97.39a1.13,1.13,0,0,0-1.126,1.126v.731c0,5.29,5.684,10.073,13.9,10.073s13.9-4.783,13.9-10.073V45c0-5.346-3.544-8.216-8.665-8.216H104.931a2.517,2.517,0,0,1-2.758-2.757V29.694c0-2.982,3.658-4.727,7.99-4.727s7.992,1.745,7.992,4.727v.619a1.128,1.128,0,0,0,1.125,1.126h3.658a1.128,1.128,0,0,0,1.124-1.126v-.619C124.062,24.4,118.379,19.621,110.163,19.621Z" fill="#fff"/>
      <path id="Pfad_2354" data-name="Pfad 2354" d="M161.484,30.538c0-5.852-5.458-10.917-14.8-10.917s-14.744,5.065-14.744,10.917V49.22c0,5.853,5.4,10.917,14.744,10.917s14.8-5.064,14.8-10.917ZM155.576,49.22c0,3.546-4,5.572-8.891,5.572s-8.835-2.026-8.835-5.572V30.538c0-3.545,3.939-5.571,8.835-5.571s8.891,2.026,8.891,5.571Z" fill="#fff"/>
      <path id="Pfad_2355" data-name="Pfad 2355" d="M193.73,58.449v-3.1a1.129,1.129,0,0,0-1.126-1.125H176.679a.533.533,0,0,1-.563-.563V21.309a1.128,1.128,0,0,0-1.125-1.125h-3.658a1.128,1.128,0,0,0-1.125,1.125v37.14a1.129,1.129,0,0,0,1.125,1.126H192.6A1.13,1.13,0,0,0,193.73,58.449Z" fill="#fff"/>
      <path id="Pfad_2356" data-name="Pfad 2356" d="M206.223,52.484h15.306a.932.932,0,0,1,.957.732l1.857,5.4a1.253,1.253,0,0,0,1.181.957h3.32a1.235,1.235,0,0,0,1.182-1.745L217.252,21.14a1.279,1.279,0,0,0-1.238-.956h-4.276a1.332,1.332,0,0,0-1.238.956L197.726,57.83a1.235,1.235,0,0,0,1.181,1.745h3.321a1.32,1.32,0,0,0,1.181-.957l1.858-5.4A.93.93,0,0,1,206.223,52.484Zm1.351-6.19,5.739-17.05a.586.586,0,0,1,1.126,0l5.74,17.05a.621.621,0,0,1-.619.845H208.193A.621.621,0,0,1,207.574,46.294Z" fill="#fff"/>
      <path id="Rechteck_279" data-name="Rechteck 279" d="M1.126,0h13.73a1.126,1.126,0,0,1,1.126,1.126V3.94a1.125,1.125,0,0,1-1.125,1.125H1.126A1.126,1.126,0,0,1,0,3.939V1.126A1.126,1.126,0,0,1,1.126,0Z" transform="translate(234.585 39.26)" fill="#fff"/>
      <path id="Pfad_2357" data-name="Pfad 2357" d="M283.26,57.886l-11.31-17.5a1.725,1.725,0,0,1,0-1.8L282.7,21.816a1.021,1.021,0,0,0-.9-1.632h-4a1.548,1.548,0,0,0-1.238.675L268.63,33.633a.736.736,0,0,1-1.238,0l-7.935-12.774a1.544,1.544,0,0,0-1.237-.675h-3.995a1.021,1.021,0,0,0-.9,1.632l10.748,16.713a1.826,1.826,0,0,1,0,1.857l-11.311,17.5a1.059,1.059,0,0,0,.9,1.689h4.165a1.545,1.545,0,0,0,1.237-.676l8.329-13.393a.736.736,0,0,1,1.238,0L276.958,58.9a1.548,1.548,0,0,0,1.238.676h4.164A1.06,1.06,0,0,0,283.26,57.886Z" fill="#fff"/>
      <g id="Gruppe_663" data-name="Gruppe 663">
        <path id="Pfad_2358" data-name="Pfad 2358" d="M135.706,74.861h-.914a.283.283,0,0,0-.282.281v6.907c0,.887-.928,1.464-2.152,1.464s-2.138-.577-2.138-1.464V75.142a.283.283,0,0,0-.282-.281h-.914a.283.283,0,0,0-.282.281v6.907c0,1.464,1.281,2.8,3.616,2.8s3.629-1.336,3.629-2.8V75.142A.282.282,0,0,0,135.706,74.861Z" fill="#fff"/>
        <path id="Pfad_2359" data-name="Pfad 2359" d="M145.329,74.861h-.844a.282.282,0,0,0-.281.281v6.416a.111.111,0,0,1-.211.055l-4.3-6.583a.387.387,0,0,0-.31-.169h-.718a.283.283,0,0,0-.281.281v9.285a.282.282,0,0,0,.281.281h.845a.282.282,0,0,0,.281-.281V78.1a.114.114,0,0,1,.211-.069L144.3,84.54a.387.387,0,0,0,.31.168h.717a.282.282,0,0,0,.282-.281V75.142A.283.283,0,0,0,145.329,74.861Z" fill="#fff"/>
        <path id="Pfad_2360" data-name="Pfad 2360" d="M153.6,83.372H149.62a.133.133,0,0,1-.141-.14v-8.09a.282.282,0,0,0-.281-.281h-.915a.283.283,0,0,0-.281.281v9.285a.282.282,0,0,0,.281.281H153.6a.282.282,0,0,0,.282-.281v-.774A.282.282,0,0,0,153.6,83.372Z" fill="#fff"/>
        <path id="Rechteck_280" data-name="Rechteck 280" d="M.281,0H1.2a.281.281,0,0,1,.281.281V9.566a.281.281,0,0,1-.281.281H.282A.282.282,0,0,1,0,9.565V.281A.281.281,0,0,1,.281,0Z" transform="translate(155.641 74.861)" fill="#fff"/>
        <path id="Pfad_2361" data-name="Pfad 2361" d="M168.683,74.861h-1.252a.283.283,0,0,0-.239.155l-2.786,6.345a.176.176,0,0,1-.338,0l-2.785-6.345a.286.286,0,0,0-.24-.155h-1.252a.283.283,0,0,0-.281.281v9.285a.282.282,0,0,0,.281.281h.845a.281.281,0,0,0,.281-.281v-6.3c0-.155.211-.169.267-.056l2.87,6.4a.2.2,0,0,0,.366,0l2.87-6.4a.14.14,0,0,1,.267.056v6.3a.282.282,0,0,0,.282.281h.844a.282.282,0,0,0,.281-.281V75.142A.283.283,0,0,0,168.683,74.861Z" fill="#fff"/>
        <path id="Rechteck_281" data-name="Rechteck 281" d="M.281,0H1.2a.281.281,0,0,1,.281.281V9.566a.281.281,0,0,1-.281.281H.282A.282.282,0,0,1,0,9.565V.281A.281.281,0,0,1,.281,0Z" transform="translate(171.356 74.861)" fill="#fff"/>
        <path id="Pfad_2362" data-name="Pfad 2362" d="M181.541,74.861h-6.668a.282.282,0,0,0-.281.281v.774a.282.282,0,0,0,.281.282h2.462a.133.133,0,0,1,.141.14v8.089a.281.281,0,0,0,.281.281h.914a.282.282,0,0,0,.282-.281V76.338a.132.132,0,0,1,.141-.14h2.447a.283.283,0,0,0,.282-.282v-.774A.283.283,0,0,0,181.541,74.861Z" fill="#fff"/>
        <path id="Pfad_2363" data-name="Pfad 2363" d="M189.518,74.861h-5.656a.283.283,0,0,0-.281.281v9.285a.282.282,0,0,0,.281.281h5.656a.282.282,0,0,0,.281-.281v-.774a.282.282,0,0,0-.281-.281H185.2a.133.133,0,0,1-.141-.14V80.545a.133.133,0,0,1,.141-.141h3.967a.283.283,0,0,0,.282-.282v-.774a.283.283,0,0,0-.282-.281H185.2a.133.133,0,0,1-.141-.14V76.338a.132.132,0,0,1,.141-.14h4.319a.283.283,0,0,0,.281-.282v-.774A.283.283,0,0,0,189.518,74.861Z" fill="#fff"/>
        <path id="Pfad_2364" data-name="Pfad 2364" d="M196.06,74.861h-3.8a.283.283,0,0,0-.281.281v9.285a.282.282,0,0,0,.281.281h3.8c2.447,0,3.137-1.223,3.137-3.08V77.942C199.2,76.085,198.507,74.861,196.06,74.861Zm1.659,6.724c0,1.238-.337,1.759-1.758,1.759H193.6a.133.133,0,0,1-.141-.14V76.366a.133.133,0,0,1,.141-.14h2.363c1.421,0,1.758.506,1.758,1.772Z" fill="#fff"/>
        <path id="Pfad_2365" data-name="Pfad 2365" d="M208.665,74.72c-2.054,0-3.475,1.2-3.475,2.518V78.35a1.953,1.953,0,0,0,2.167,2.054h2.616a.63.63,0,0,1,.69.689v1.239c0,.745-.915,1.181-2,1.181s-2-.436-2-1.181v-.184a.282.282,0,0,0-.281-.281h-.914a.283.283,0,0,0-.282.281v.184c0,1.321,1.421,2.517,3.475,2.517s3.475-1.2,3.475-2.517V81.065a1.953,1.953,0,0,0-2.167-2.054h-2.616a.63.63,0,0,1-.69-.689V77.238c0-.745.915-1.181,2-1.181s2,.436,2,1.181v.155a.282.282,0,0,0,.281.282h.914a.283.283,0,0,0,.282-.282v-.155C212.14,75.916,210.719,74.72,208.665,74.72Z" fill="#fff"/>
        <path id="Pfad_2366" data-name="Pfad 2366" d="M225.462,74.861h-.956a.256.256,0,0,0-.253.211l-1.647,7.034a.128.128,0,0,1-.252,0l-1.8-6.95a.4.4,0,0,0-.394-.295H219.1a.378.378,0,0,0-.379.295l-1.8,6.95a.129.129,0,0,1-.253,0l-1.646-7.034a.256.256,0,0,0-.253-.211h-.957a.31.31,0,0,0-.31.394l2.364,9.172a.347.347,0,0,0,.337.281h1.225a.355.355,0,0,0,.323-.252l1.758-6.95a.127.127,0,0,1,.254,0l1.8,6.95a.356.356,0,0,0,.324.252h1.182a.36.36,0,0,0,.337-.281l2.364-9.172A.31.31,0,0,0,225.462,74.861Z" fill="#fff"/>
        <path id="Pfad_2367" data-name="Pfad 2367" d="M231.048,75.1a.321.321,0,0,0-.31-.239h-1.069a.335.335,0,0,0-.31.239l-3.193,9.172a.308.308,0,0,0,.3.436h.83a.33.33,0,0,0,.295-.239l.465-1.35a.231.231,0,0,1,.239-.183h3.826a.233.233,0,0,1,.239.183l.464,1.35a.313.313,0,0,0,.3.239h.83a.308.308,0,0,0,.295-.436Zm.577,6.5h-2.842a.156.156,0,0,1-.155-.212l1.435-4.262a.147.147,0,0,1,.282,0l1.434,4.262A.155.155,0,0,1,231.625,81.6Z" fill="#fff"/>
        <path id="Pfad_2368" data-name="Pfad 2368" d="M239.671,74.861h-3.517a.283.283,0,0,0-.281.281v9.285a.282.282,0,0,0,.281.281h.915a.281.281,0,0,0,.281-.281V80.545a.133.133,0,0,1,.141-.141h2.18c2.195,0,2.884-1.111,2.884-2.645v-.281C242.555,75.93,241.866,74.861,239.671,74.861Zm1.407,2.912a1.14,1.14,0,0,1-1.294,1.294h-2.293a.133.133,0,0,1-.141-.14V76.338a.132.132,0,0,1,.141-.14h2.265c.985,0,1.322.491,1.322,1.252Z" fill="#fff"/>
        <path id="Pfad_2369" data-name="Pfad 2369" d="M247.719,74.72c-2.054,0-3.475,1.2-3.475,2.518V78.35A1.952,1.952,0,0,0,246.41,80.4h2.617a.629.629,0,0,1,.689.689v1.239c0,.745-.914,1.181-2,1.181s-2-.436-2-1.181v-.184a.283.283,0,0,0-.282-.281h-.914a.283.283,0,0,0-.281.281v.184c0,1.321,1.421,2.517,3.475,2.517s3.474-1.2,3.474-2.517V81.065a1.952,1.952,0,0,0-2.166-2.054H246.41a.629.629,0,0,1-.689-.689V77.238c0-.745.915-1.181,2-1.181s2,.436,2,1.181v.155a.283.283,0,0,0,.282.282h.914a.282.282,0,0,0,.281-.282v-.155C251.193,75.916,249.773,74.72,247.719,74.72Z" fill="#fff"/>
      </g>
    </g>
  </g>
</svg>
