<?xml version="1.0" encoding="utf-8"?>
<!-- Generator: Adobe Illustrator 26.0.3, SVG Export Plug-In . SVG Version: 6.00 Build 0)  -->
<svg xmlns:xlink="http://www.w3.org/1999/xlink" version="1.1" id="Ebene_1" xmlns="http://www.w3.org/2000/svg" x="0px" y="0px"
	 viewBox="0 0 575 350" style="enable-background:new 0 0 575 350;" xml:space="preserve">
<style type="text/css">
	.st0{fill:#FE9898;}
	.st1{fill:#FEFBFB;}
	.st2{fill:#FEFDFD;}
	.st3{fill:#FEFEFE;}
	.st4{fill:#FEFAFA;}
	.st5{fill:#FEF4F4;}
	.st6{fill:#FEF5F5;}
	.st7{fill:#FEFCFC;}
	.st8{fill:#FEF7F7;}
	.st9{fill:#FE9999;}
	.st10{fill:#FE9A9A;}
	.st11{fill:#FDFDFD;}
	.st12{fill:#ECECEC;}
	.st13{fill:#FE9C9C;}
	.st14{clip-path:url(#SVGID_00000078725232402174023560000000100135248845353612_);}
	.st15{fill:#192337;}
</style>
<rect class="st0" width="575" height="350"/>
<g>
	<defs>
		<rect id="SVGID_1_" width="575" height="350"/>
	</defs>
	<clipPath id="SVGID_00000031904831845720219830000003220839800098538396_">
		<use xlink:href="#SVGID_1_"  style="overflow:visible;"/>
	</clipPath>
	<g style="clip-path:url(#SVGID_00000031904831845720219830000003220839800098538396_);">
		<path class="st7" d="M390.4,206.9c7.4,11,14.1,20.9,19.7,31.5c4.8,9.1,9.8,18.2,11,28.6c2,17.4-4.2,32-17.3,42.9
			c-29.9,24.9-72.5,11-82.7-26.5c-3.3-12-0.8-23.3,4.5-34.2c6.3-12.8,13.6-25.1,21.6-37c1-1.5,2.4-2.7,2.7-5.4c-5,0-9.9-0.1-14.8,0
			c-4.2,0.1-6.1-1.8-6-6c0.1-5.6-0.2-11.3,0.1-16.9c0.2-3.7-1.1-4.9-4.8-4.9c-13.5,0.2-27,0.1-40.5,0.1c-28,0-55.9,0.1-83.9-0.1
			c-4.4,0-5.7,1.2-5.6,5.6c0.2,31.7,0.2,63.5,0,95.2c0,3.9,1,5.3,5,5.1c4.3-0.3,8.6,0,12.9,0.3c3.5,0.3,5.2,2.3,5.1,6
			c-0.2,5.8,0.1,11.6-0.1,17.4c-0.1,3,0.8,4.4,3.9,4c1.8-0.2,3.7-0.2,5.5,0.1c2.4,0.4,4.7,1.7,4.4,4.5c-0.3,2.5-1.6,4.8-4.7,5
			c-1.2,0.1-2.3,0-3.5,0c-44.6,0-89.2,0-133.9,0c-2.5,0-5.9,1.3-5.9-3.6c0-4.5,2.2-5.9,6.1-6c1.2-0.1,2.3,0,3.5,0.1
			c2.7,0.2,3.9-0.7,3.9-3.6c0-5.8,0.6-11.6,0.5-17.4c-0.1-4.5,1.7-6.5,5.9-6.7c4.2-0.2,8.3-0.4,12.5-0.1c3.7,0.2,4.9-1,4.8-4.8
			c-0.2-14-0.1-27.9-0.1-41.9c0-42-0.1-84.1,0.1-126.1c0.2-40.6,31.2-76.7,71.3-83.7c7.1-1.2,14.1-1.8,21.3-1.8
			c70.9,0,141.9,0,212.8,0c9.1,0,9.1,0.4,9.6,9.6c0.9,20.7-7,36.8-24.6,47.9c-8.5,5.3-18,7.4-28.1,7.3
			c-56.4-0.1-112.9-0.1-169.3-0.1c-2.5,0-4.9,0.1-7.4,0.6c-7,1.5-11.3,5.9-11.5,13c-0.3,8.3,0,16.6-0.1,24.9c0,2.3,0.8,3.4,3.2,3.2
			c1.3-0.1,2.7,0,4,0c69.6,0,139.2,0.1,208.8-0.1c11.2,0,19.2,4.4,23.7,14.8c0.9,2,1.3,4.1,1.3,6.3c0,6.3-0.1,12.6,0,18.9
			c0.1,4.3-1.7,6.1-5.9,6.1c-4.5-0.1-9,0.1-13.5-0.1c-2.8-0.1-3.8,0.9-3.7,3.7c0.2,6.1,0,12.3,0.1,18.4c0,4-1.8,5.8-5.8,5.7
			C401.5,206.9,396.5,206.9,390.4,206.9z M296.4,82.3C296.4,82.3,296.4,82.3,296.4,82.3c29.3,0,58.6,0.1,87.9,0
			c22.9-0.1,41.6-18.6,41.8-41c0-3.9-1-5.1-5-5.1c-71.9,0.1-143.9,0-215.8,0.2c-27.5,0.1-48.1,13.6-63.3,35.7
			c-11.9,17.3-13.5,37.1-12.6,57.3c0.1,3.3,2.1,3.6,4.7,3.6c15.5,0,31-0.1,46.5,0.1c3.9,0,4.8-1.5,4.7-5c-0.2-6.8-0.1-13.6,0-20.4
			c0.1-16.4,8.9-25.3,25.3-25.3C239.2,82.3,267.8,82.3,296.4,82.3z M129.5,213.7c0,22.1,0.1,44.2-0.1,66.3c0,4,1.2,5.1,5.1,5.1
			c3.9,0,5.1-1.1,5.1-5.1c-0.2-26.9-0.1-53.8-0.1-80.7c0-14.6,0-29.2,0-43.8c0-1.6-0.8-3.7,2-4.3c5.9-1.3,7.8,0.1,7.8,6
			c0,40.8,0.1,81.7-0.1,122.5c0,4.1,1.1,5.4,5.3,5.3c8.6-0.3,17.3-0.3,26,0c3.8,0.1,4.7-1.2,4.7-4.9c-0.1-44.3-0.1-88.7,0-133
			c0-3.7-1.1-4.9-4.8-4.9c-15,0.2-30,0.3-44.9,0c-5-0.1-6.1,1.7-6,6.3C129.6,170.2,129.5,192,129.5,213.7z M310.6,169.9
			c35.3,0,70.6,0,105.9,0c9.6,0,9.6,0,9.6-9.7c0-13.3-4.7-18-18-18c-69.1,0-138.2,0-207.3,0c-1,0-2,0.1-3,0c-3.7-0.4-3.4,2-3.4,4.5
			c0,2.4-0.3,4.7,3.4,4.5c6.3-0.2,12.7-0.1,19-0.1c20.6,0,41.3,0,61.9,0c1.9,0,4.4-0.9,4.7,2.7c0.5,6.6,0.2,7.1-6.3,7.1
			c-26,0-51.9,0.1-77.9-0.1c-3.6,0-4.9,0.9-4.9,4.7c0,4.3,2.3,4.3,5.4,4.3C236.7,169.9,273.6,169.9,310.6,169.9z M370.8,312.8
			c2.6-0.3,5.7-0.2,8.8-0.8c22.6-4.6,41.1-31.6,28-57.4c-7.4-14.6-15.9-28.3-24.6-42.1c-2.5-4-5.4-6-10.1-5.6
			c-2.1,0.2-4.3,0.1-6.5,0.1c-2.7-0.1-4.8,0.9-6.4,3.2c-10.2,15-20.2,30-27.4,46.7C319.8,286.5,344.9,313.7,370.8,312.8z
			 M156.9,312.7c12.6,0,25.3,0,37.9,0c13.5,0,13.4,0,13.4-13.5c0-3.4-0.9-4.5-4.5-4.5c-30.9,0.1-61.9,0.1-92.8,0
			c-3.3,0-4.9,0.7-4.6,4.4c0.3,3,0.3,6,0,9c-0.3,3.7,0.8,4.9,4.7,4.8C126.3,312.6,141.6,312.7,156.9,312.7z M370.4,179.2
			c-6.2,0-12.3,0-18.5,0c-13.9,0-13.7,0-13.8,13.7c0,4.1,1.5,5,5.2,5c18.1-0.1,36.3-0.1,54.4,0c3.7,0,5.7-0.8,5.2-5
			c-0.3-3.1-0.2-6.3,0-9.5c0.2-3.2-0.9-4.4-4.2-4.3C389.4,179.3,379.9,179.2,370.4,179.2z"/>
		<path class="st15" d="M573.6,342.1c0,0.6,0.1,1.3-0.7,1.5C573.1,343.1,573.4,342.6,573.6,342.1z"/>
		<path class="st9" d="M296.4,82.3c-28.6,0-57.3,0-85.9,0c-16.4,0-25.2,8.8-25.3,25.3c0,6.8-0.1,13.6,0,20.4c0.1,3.5-0.8,5.1-4.7,5
			c-15.5-0.2-31-0.1-46.5-0.1c-2.6,0-4.5-0.3-4.7-3.6c-0.9-20.2,0.8-40,12.6-57.3c15.2-22.1,35.8-35.6,63.3-35.7
			c71.9-0.3,143.9-0.1,215.8-0.2c4,0,5,1.2,5,5.1c-0.2,22.3-18.9,40.9-41.8,41C355,82.4,325.7,82.3,296.4,82.3
			C296.4,82.3,296.4,82.3,296.4,82.3z"/>
		<path class="st10" d="M129.5,213.7c0-21.8,0.1-43.5-0.1-65.3c0-4.6,1-6.4,6-6.3c15,0.3,29.9,0.2,44.9,0c3.7,0,4.9,1.2,4.8,4.9
			c-0.1,44.3-0.1,88.7,0,133c0,3.6-0.9,5-4.7,4.9c-8.6-0.3-17.3-0.3-26,0c-4.2,0.2-5.3-1.2-5.3-5.3c0.1-40.8,0.1-81.7,0.1-122.5
			c0-5.9-1.9-7.3-7.8-6c-2.8,0.6-2,2.7-2,4.3c-0.1,14.6,0,29.2,0,43.8c0,26.9-0.1,53.8,0.1,80.7c0,4-1.2,5.1-5.1,5.1
			c-3.9,0-5.1-1.1-5.1-5.1C129.6,257.9,129.5,235.8,129.5,213.7z"/>
		<path class="st10" d="M310.6,169.9c-37,0-73.9,0-110.9,0c-3.1,0-5.4,0-5.4-4.3c0-3.8,1.2-4.7,4.9-4.7c26,0.1,51.9,0.1,77.9,0.1
			c6.5,0,6.8-0.6,6.3-7.1c-0.3-3.6-2.7-2.7-4.7-2.7c-20.6,0-41.3,0-61.9,0c-6.3,0-12.7-0.2-19,0.1c-3.7,0.1-3.4-2.2-3.4-4.5
			c0-2.4-0.3-4.9,3.4-4.5c1,0.1,2,0,3,0c69.1,0,138.2,0,207.3,0c13.3,0,18,4.7,18,18c0,9.7,0,9.7-9.6,9.7
			C381.2,169.9,345.9,169.9,310.6,169.9z"/>
		<path class="st9" d="M370.8,312.8c-25.9,0.9-51-26.3-38.2-56c7.2-16.7,17.2-31.8,27.4-46.7c1.5-2.3,3.7-3.2,6.4-3.2
			c2.2,0,4.3,0.2,6.5-0.1c4.7-0.5,7.6,1.6,10.1,5.6c8.6,13.8,17.2,27.6,24.6,42.1c13.1,25.8-5.4,52.8-28,57.4
			C376.5,312.6,373.4,312.5,370.8,312.8z M370.9,298.8c2.3,0.3,4.3-0.8,4.6-3.2c0.5-3.6,2.9-5.2,5.4-7.2c6.8-5.5,7.1-14.2,0.9-20.5
			c-3.3-3.3-7.4-5.6-11.4-7.9c-2.4-1.4-4.4-3.2-2.9-5.9c1.4-2.4,4.1-1.4,6.3-0.8c0.6,0.2,1.2,0.5,1.8,0.9c3.5,2.2,6.8,2.3,8.9-1.6
			c2.2-3.9-0.7-6.4-3.6-8.1c-2.7-1.6-4.9-2.9-5-6.6c-0.1-2.5-2.3-3.9-5-4c-2.6-0.1-5,0.9-5.3,3.5c-0.4,3.3-2.4,4.7-4.7,6.5
			c-7,5.4-7.6,14.9-1.6,21.5c2.5,2.8,5.6,4.6,9,6c3.3,1.4,8,3.1,5.9,7.4c-2.1,4.4-6,1.4-9-0.4c-3-1.8-5.6-1.6-7.7,1.3
			c-2.2,3-0.3,5.3,1.3,7.6c0.4,0.5,1,0.9,1.6,1.1c2.9,1.3,4.8,3.1,5.1,6.6C365.7,297.7,367.8,299.1,370.9,298.8z"/>
		<path class="st9" d="M156.9,312.7c-15.3,0-30.6-0.1-45.9,0.1c-3.8,0.1-5-1.2-4.7-4.8c0.3-3,0.3-6,0-9c-0.4-3.7,1.3-4.4,4.6-4.4
			c30.9,0.1,61.9,0.1,92.8,0c3.6,0,4.5,1.1,4.5,4.5c0.1,13.5,0.2,13.5-13.4,13.5C182.2,312.7,169.6,312.7,156.9,312.7z"/>
		<path class="st10" d="M370.4,179.2c9.5,0,19,0.1,28.4-0.1c3.3-0.1,4.4,1.1,4.2,4.3c-0.2,3.1-0.3,6.3,0,9.5c0.4,4.2-1.5,5-5.2,5
			c-18.1-0.1-36.3-0.1-54.4,0c-3.8,0-5.3-0.9-5.2-5c0-13.7-0.1-13.7,13.8-13.7C358.1,179.2,364.2,179.2,370.4,179.2z"/>
		<path class="st7" d="M370.9,298.8c-3.1,0.3-5.2-1.1-5.4-3.7c-0.3-3.5-2.3-5.3-5.1-6.6c-0.6-0.3-1.3-0.6-1.6-1.1
			c-1.6-2.3-3.5-4.6-1.3-7.6c2.2-3,4.7-3.1,7.7-1.3c2.9,1.7,6.9,4.7,9,0.4c2.1-4.3-2.6-6-5.9-7.4c-3.4-1.4-6.5-3.2-9-6
			c-6-6.6-5.4-16.1,1.6-21.5c2.3-1.8,4.3-3.3,4.7-6.5c0.3-2.6,2.7-3.6,5.3-3.5c2.6,0.1,4.9,1.5,5,4c0.1,3.7,2.3,5,5,6.6
			c2.9,1.7,5.8,4.2,3.6,8.1c-2.1,3.9-5.5,3.8-8.9,1.6c-0.6-0.4-1.2-0.7-1.8-0.9c-2.2-0.6-5-1.6-6.3,0.8c-1.5,2.7,0.5,4.5,2.9,5.9
			c4,2.3,8.1,4.6,11.4,7.9c6.2,6.3,5.9,15-0.9,20.5c-2.5,2-4.9,3.7-5.4,7.2C375.2,298,373.1,299.1,370.9,298.8z"/>
	</g>
</g>
</svg>
