<svg xmlns="http://www.w3.org/2000/svg" width="21.899" height="30" viewBox="0 0 21.899 30">
  <g id="LOGO_ICON_01_1" transform="translate(10.95 15)">
    <path id="Pfad_6655" data-name="Pfad 6655" d="M10.713.048.372,4.416A.609.609,0,0,0,0,4.977V25.07a.609.609,0,0,0,.374.562l10.341,4.321a.608.608,0,0,0,.47,0l10.341-4.321a.609.609,0,0,0,.374-.562V4.977a.609.609,0,0,0-.372-.561L11.186.048A.609.609,0,0,0,10.713.048ZM3.151,6.467l5.9-2.494a.294.294,0,0,1,.409.271V5.872a.294.294,0,0,1-.086.208l-5.9,5.9a.3.3,0,0,1-.5-.208V6.738A.3.3,0,0,1,3.151,6.467ZM2.97,23.3v-2.93a.3.3,0,0,1,.5-.208L5.261,21.95a.608.608,0,0,0,.861,0L16,12.074a.3.3,0,0,1,.416,0L18.1,13.762a.294.294,0,0,1,0,.417L9.642,22.641a.609.609,0,0,0-.178.43v2.7a.294.294,0,0,1-.408.271l-5.9-2.467A.3.3,0,0,1,2.97,23.3Zm15.776.272-5.9,2.467a.3.3,0,0,1-.408-.271v-1.6a.3.3,0,0,1,.087-.208l5.9-5.9a.294.294,0,0,1,.5.208V23.3A.294.294,0,0,1,18.747,23.573ZM15.776,8.094,5.9,17.971a.3.3,0,0,1-.416,0L3.794,16.282a.294.294,0,0,1,0-.417L12.256,7.4a.608.608,0,0,0,.178-.43V4.245a.3.3,0,0,1,.409-.271l5.9,2.494a.294.294,0,0,1,.18.271V9.673a.294.294,0,0,1-.5.208L16.637,8.094A.609.609,0,0,0,15.776,8.094Z" transform="translate(-10.95 -15)" fill="#fff"/>
  </g>
</svg>
