<svg xmlns="http://www.w3.org/2000/svg" width="305.639" height="177.419" viewBox="0 0 305.639 177.419">
  <g id="ICON_02" transform="translate(152.82 88.709)">
    <g id="Gruppe_1811" data-name="Gruppe 1811" transform="translate(-147.819 -83.709)">
      <ellipse id="Ellipse_394" data-name="Ellipse 394" cx="20.001" cy="20.001" rx="20.001" ry="20.001" transform="translate(195.633)" fill="none" stroke="#00d2c8" stroke-width="10.001"/>
      <g id="Gruppe_1810" data-name="Gruppe 1810" transform="translate(83.418 47.411)">
        <path id="Pfad_7082" data-name="Pfad 7082" d="M170.529,65.51c-33.139,0-60,13.433-60,30s26.865,30,60,30,60-13.432,60-30S203.667,65.51,170.529,65.51Z" transform="translate(-110.525 -65.51)" fill="none" stroke="#00d2c8" stroke-width="10.001"/>
        <path id="Pfad_7083" data-name="Pfad 7083" d="M110.525,162.008v12.8c0,16.57,26.865,30,60,30s60-13.432,60-30v-12.8" transform="translate(-110.525 -84.805)" fill="none" stroke="#00d2c8" stroke-linecap="round" stroke-width="10.001"/>
      </g>
      <ellipse id="Ellipse_395" data-name="Ellipse 395" cx="30.002" cy="30.002" rx="30.002" ry="30.002" transform="translate(0 18.98)" fill="none" stroke="#00d2c8" stroke-width="10.001"/>
      <ellipse id="Ellipse_396" data-name="Ellipse 396" cx="30.002" cy="30.002" rx="30.002" ry="30.002" transform="translate(235.635 52.293)" fill="none" stroke="#00d2c8" stroke-width="10.001"/>
      <line id="Linie_360" data-name="Linie 360" y2="60.004" transform="translate(83.418 77.413)" fill="none" stroke="#00d2c8" stroke-width="10.001"/>
      <line id="Linie_361" data-name="Linie 361" y2="60.004" transform="translate(203.425 77.413)" fill="none" stroke="#00d2c8" stroke-width="10.001"/>
      <path id="Pfad_7084" data-name="Pfad 7084" d="M148.916,123.368a61.06,61.06,0,0,0-61.061-61.06q-2.409,0-4.771.184" transform="translate(-21.62 -17.459)" fill="none" stroke="#00d2c8" stroke-width="10.001"/>
      <path id="Pfad_7085" data-name="Pfad 7085" d="M290.377,88.245a46.3,46.3,0,0,0-68.19,36.864q-.155,1.9-.156,3.834" transform="translate(-49.402 -21.528)" fill="none" stroke="#00d2c8" stroke-width="10.001"/>
      <path id="Pfad_7086" data-name="Pfad 7086" d="M235.2,35.58a96.538,96.538,0,0,0-63.845,83.133" transform="translate(-39.27 -12.115)" fill="none" stroke="#00d2c8" stroke-width="10.001"/>
    </g>
  </g>
</svg>
