<?xml version="1.0" encoding="utf-8"?>
<!-- Generator: Adobe Illustrator 26.0.3, SVG Export Plug-In . SVG Version: 6.00 Build 0)  -->
<svg version="1.1" id="Ebene_1" xmlns="http://www.w3.org/2000/svg" x="0px" y="0px"
     viewBox="0 0 575 350" style="enable-background:new 0 0 575 350;" xml:space="preserve">
<style type="text/css">
	.st0{fill:#FE9898;}
	.st1{fill:#FEFBFB;}
	.st2{fill:#FEFDFD;}
	.st3{fill:#FEFEFE;}
	.st4{fill:#FEFAFA;}
	.st5{fill:#FEF4F4;}
	.st6{fill:#FEF5F5;}
	.st7{fill:#FEFCFC;}
	.st8{fill:#FEF7F7;}
	.st9{fill:#FE9999;}
	.st10{fill:#FE9A9A;}
	.st11{fill:#FDFDFD;}
	.st12{fill:#ECECEC;}
	.st13{fill:#FE9C9C;}
	.st14{clip-path:url(#SVGID_00000076569825770144635280000002058679608822814650_);}
	.st15{fill:#192337;}
</style>
<rect x="-0.1" class="st0" width="577" height="350"/>
<g>
	<path class="st7" d="M248.4,244.7c-2.6,2.4-4.2,3.9-5.8,5.5c-3,3.1-6.2,3.4-9.7,0.7c-2.9-2.2-6-4.2-9-6.3c-2-1.5-2.9-0.7-3.4,1.4
		c-0.8,3.7-1.6,7.4-2.3,11.2c-0.6,3.7-2.9,5.6-6.4,5.7c-5.7,0.2-11.3,0.2-17,0c-3.8-0.1-5.8-2.1-6.7-6c-1-4.4-0.9-9.2-3.6-13.2
		c-3.8,2.4-7.7,4.5-11.3,7.2c-3.5,2.6-6.4,2.2-9.2-0.7c-4.3-4.2-8.5-8.4-12.7-12.7c-2.4-2.5-2.6-5.2-0.6-8.1
		c2.2-3.1,4.2-6.4,6.5-9.5c1.7-2.4,1.2-3.4-1.7-3.8c-3.6-0.5-7.2-1.4-10.7-2.2c-3.7-0.8-5.7-2.7-5.5-7c0.3-5.3,0.2-10.6,0-15.9
		c-0.2-4.1,1.7-6.2,5.5-7c3.6-0.8,7.1-1.8,10.7-2.4c3.5-0.6,3.2-1.9,1.5-4.2c-2.2-2.9-4.1-6-6.2-9c-1.9-2.7-1.8-5,0.4-7.6
		c4.2-4.8,8.7-9.2,13.3-13.5c2.8-2.6,5.6-2.6,8.6-0.5c2.9,2,5.9,3.7,8.6,5.9c3,2.4,3.8,1,4.4-1.8c0.5-2.6,1-5.2,1.6-7.8
		c0.8-3.3,1.2-6.9,5.6-8c2-0.5,1.8-3,2.1-4.7c4.9-40.5,32.5-71.6,71.8-81.1c8-1.9,16.2-2.1,24.3-1.7c4.3,0.2,7.8-1,11-3.7
		c2.6-2.1,5.3-4.1,8-6c4.8-3.3,6.2-3.2,10,1.4c3.1,3.9,6,8,9,11.9c1.5,2,3.2,4,6.2,3.3c3-0.7,3.4-3.2,3.8-5.8
		c0.8-5.4,1.8-10.8,2.6-16.2c0.5-3.7,2.5-5.4,6.1-4.9c9.2,1.2,18.4,2.4,27.6,3.8c4.3,0.6,5.8,3.5,5.2,7.6c-0.7,4.9-1.5,9.8-2.3,14.7
		c-0.5,2.8-0.6,5.4,2.1,7.1c2.8,1.7,5,0.1,7.2-1.5c4.1-3.1,8.2-6.2,12.4-9.2c3.4-2.5,6.5-2.1,9,1.4c5.1,6.8,10.2,13.5,15.2,20.3
		c3.5,4.8,3.3,6.3-1.3,10c-3.9,3.1-8,6-11.9,9c-2.2,1.7-4.2,3.6-3.2,6.7c1,3,3.7,3.5,6.4,3.9c4.9,0.7,9.9,1.4,14.8,2
		c4.3,0.6,6.2,3.1,5.6,7.2c-1.2,9-2.6,18-4,27c-0.8,5-4.6,5-8.5,4.5c-4.9-0.6-9.9-1.4-14.8-1.9c-2.3-0.2-4.8-0.6-6.2,2.1
		c-1.3,2.6-0.2,4.8,1.4,6.9c3.1,4.1,6.1,8.3,9.3,12.3c2.9,3.6,2.3,6.7-1.3,9.3c-7.1,5.2-14.2,10.4-21.2,15.7c-3.6,2.7-6.4,2-8.9-1.4
		c-3.2-4.3-6.4-8.5-9.5-12.8c-1.5-2-3.2-3.5-5.8-3c-2.9,0.6-3.8,3-4.2,5.6c-0.8,5.1-1.5,10.2-2.1,15.3c-0.5,4.3-2.5,6.7-7.2,6
		c-8.9-1.3-17.7-2.4-26.6-3.6c-3.7-0.5-5.6-2.6-5.1-6.5c0.6-4.4,1.1-8.9,1.7-13.3c0.3-2,0.6-4,0.1-5.9c-1.3-4.7-4.2-5.7-8.1-2.9
		c-4.5,3.2-8.9,6.4-13.3,9.7c-3.5,2.6-6.4,2.2-9-1.3c-5.2-6.9-10.5-13.7-15.6-20.7c-3.2-4.4-2.7-6.7,1.7-10
		c4.1-3.1,8.2-6.2,12.4-9.2c1.9-1.4,3.3-3,2.8-5.4c-0.5-2.6-2.4-3.6-5.1-4c-5.8-0.7-11.5-1.7-17.2-2.7c-4.1-0.7-5.5-3.2-4.9-7.2
		c1.2-8.2,2.3-16.4,3.5-24.6c0.9-6.2,2.9-7.8,9-7c4.8,0.7,9.5,1.3,14.3,2.2c2.7,0.6,4.9,0.2,6.6-2.1c1.7-2.4,0.6-4.4-0.9-6.3
		c-4.1-5.6-8.8-10.9-11.8-17.2c-0.6-1.3-1.6-1.2-2.9-1.1c-40,1.7-72.7,30.6-78.4,70.1c-5,34.4,7.8,61.5,35.8,81.3
		c11.6,8.2,17.9,18.3,17.3,32.6c-0.2,5-0.2,10,0,15c0.3,7.5,3.7,10.9,11.2,10.9c12.3,0.1,24.6,0.1,37,0c7.2,0,10.5-3.5,10.6-10.8
		c0.1-6-0.1-12,0.1-17.9c0.4-10.9,4.6-19.9,13.5-26.5c3.1-2.3,6.3-4.4,9.2-6.9c2.8-2.5,4.6-1.9,7,0.8c2.9,3.2,2.5,5.4-1.1,7.2
		c-16,8.2-20.7,21.7-18.7,38.7c1,8.5-0.8,16.2-7.9,21.9c-1.8,1.5-2,3.7-2,5.9c0,7.1,0,14.3,0,21.4c-0.1,11.7-6.9,18.9-18.4,20.1
		c-7.2,0.8-14.2,0.6-21.4,0c-11.5-1-18.9-8.6-19.1-20.2c-0.1-7.3-0.1-14.6,0-21.9c0-2-0.1-4-1.8-5.4c-6.6-5.5-8.4-12.8-8.1-21
		C248.5,250.5,248.4,248.2,248.4,244.7z M331,180c-0.4,3.6-0.2,3.8,4.1,4.4c2.3,0.3,4.6,0.7,6.9,1c7.2,1,7.2,1,8.4-6
		c0.3-2,0.5-3.9,0.8-5.9c1.1-6.8,4.8-11.8,11.7-13.5c6.4-1.6,11.7,0.9,15.6,6.3c2,2.7,4.1,5.2,6,8c1.4,2,2.5,2.6,4.7,0.8
		c3.3-2.8,6.8-5.3,10.4-7.7c2.2-1.5,2.2-2.8,0.7-4.8c-2.6-3.4-5.4-6.8-7.5-10.5c-5.6-10.1,1.1-21.4,12.6-21.3
		c4.3,0,8.6,0.8,12.9,1.1c1.6,0.1,3.4,0.6,3.7-2c0.6-4.4,1.3-8.8,2-13.3c0.4-2.4-0.3-3.6-3-3.9c-4-0.4-7.9-1.1-11.8-2
		c-5.4-1.2-9.5-4.5-10.8-9.9c-1.4-5.5-0.6-11,4.2-15c3.1-2.5,6.2-5,9.4-7.3c2.1-1.6,2.8-3,0.8-5.3c-2.7-3.2-5.2-6.5-7.5-9.9
		c-1.6-2.4-2.8-2.2-4.7-0.6c-2.8,2.3-5.8,4.4-8.9,6.4c-5.7,3.8-11.5,4.2-17.2,0.2c-5.5-3.9-7.1-9.4-6-15.8
		c2.1-12.6,2.1-12.6-10.3-14.3c-7.2-1-7.4-0.8-8.2,6.6c-0.2,1.6-0.7,3.2-0.9,4.9c-0.7,7-4,11.8-11,13.8c-6.9,1.9-11.8-1.1-16.2-6
		c-2.9-3.2-4.2-9.5-8.8-9.1c-3.9,0.4-7.3,4.8-11.1,7.2c-3.5,2.2-3.1,4.3-0.7,7.1c2.4,2.8,4.6,5.7,6.4,8.8
		c5.7,9.8-1.5,22.1-12.9,21.8c-3.5-0.1-6.9-0.8-10.4-1.4c-4.3-0.8-6.8,0.3-6.5,5.2c0,0.8-0.1,1.7-0.2,2.5
		c-1.8,10.7-1.8,10.7,8.6,12.3c1.1,0.2,2.3,0.6,3.4,0.7c6.9,1,11,5,12.6,11.7c1.6,6.6-1.4,11.2-6.1,15.2c-2.4,2-4.9,4.1-7.6,5.6
		c-3.2,1.8-2.6,3.6-0.7,5.9c2.3,2.8,4.6,5.7,6.6,8.7c1.9,2.8,3.4,3.4,6.1,0.8c3.4-3.2,7.3-5.8,11.7-7.5c9.7-3.9,19.2,2.5,19.6,12.9
		C332.4,171.1,331.3,175.1,331,180z M195.7,155c-2.1,5.5-3.9,9.6-8.9,10.2c-4,0.5-7.3-1.8-10.5-3.9c-7.3-4.6-4.9-5.3-11.6,1.1
		c-0.4,0.3-0.7,0.8-1.1,1.1c-2.3,1.7-2.6,3.4-0.6,5.8c1.9,2.3,3.5,4.8,4.9,7.5c2.9,5.8,0.7,11.5-5.5,13.6c-3.1,1.1-6.5,1.5-9.7,2.3
		c-1.6,0.4-3.1,0.7-3.5,2.9c-1.4,7.8-0.3,9.5,7.4,11c1.5,0.3,2.9,0.6,4.3,1.1c8.3,2.6,10.5,8.5,6,15.8c-1.4,2.3-3,4.4-4.4,6.6
		c-0.7,1.1-1.4,2-0.5,3.6c4,6.6,8,7.6,14.2,3.4c1.2-0.8,2.5-1.7,3.8-2.4c6.1-3.3,12.2-1,14.3,5.6c1,3.1,1.5,6.5,2.3,9.6
		c0.4,1.5,0.6,3.1,2.9,3.4c7.6,1.1,9.3,0.1,10.8-7.3c0.2-1,0.5-1.9,0.8-2.9c2.5-10.1,9-12.6,17.7-6.8c9,5.9,8.9,5.8,16.1-2.2
		c2.4-2.7,2.3-5,0-7.4c-2.9-3-5.9-5.9-8.9-8.7c-5.7-5.2-5.7-5.2-11,0.4c-0.6,0.6-1.2,1.2-1.8,1.8c-8.8,8.4-19,10.7-30.3,6.5
		c-12.4-4.5-19-14.1-19.3-27c-0.3-12,5.8-21.1,16.5-27c2.9-1.6,7.9-0.5,8.6-4.3c0.6-3.1-1.4-6.7-2.2-10.1
		C196.3,157.6,196.2,157,195.7,155z M206.6,218.4c4.2,0,9-3.3,12.8-8.6c1.8-2.5,2-4.6-0.3-7c-5.8-5.8-10.3-12.6-13.9-19.9
		c-1.4-2.8-3.3-3.7-6.5-2.8c-9.3,2.6-16.2,11.7-15.1,20.3C184.9,211,193.3,218.3,206.6,218.4z M288.1,297.2c-5.3,0-10.6,0-16,0
		c-0.2,0-0.3,0-0.5,0c-1.7,0-3.2,0-3.4,2.4c-0.6,5.6,2.4,10.5,7.9,11.5c7.7,1.5,15.5,1.5,23.2,0c5.6-1.1,8.3-5.2,8-10.8
		c-0.1-2.3-1-3.2-3.3-3.1C298.7,297.3,293.4,297.2,288.1,297.2z M287.5,287.1c5.6,0,11.3-0.1,16.9,0c3.6,0.1,3-2.5,2.8-4.5
		c-0.2-2,1.5-5.2-2.5-5.2c-11.1-0.1-22.2-0.1-33.3,0c-4,0-2.8,3.3-3,5.5c-0.2,2.3-0.1,4.3,3.2,4.2
		C276.9,287,282.2,287.1,287.5,287.1z"/>
	<path class="st7" d="M287.5,233.2c-3.7,1.1-4.6-1.4-5.1-4.2c-1.9-12-8.6-20-19.8-24.8c-21.7-9.5-36.3-25.2-41.8-48.7
		c-6.2-26.8,5-55.7,27.7-71.3c1.5-1,2.9-2.1,4,0.2c1.1,2.3,4.6,4.1,1.6,7.3c-4.1,4.3-8.7,8.2-12.4,12.9
		c-23,29.7-13.2,72.2,20.8,88.5c11,5.3,21.2,11.2,26.5,22.9c1.8,3.9,2.9,8.1,3.4,12.4C292.7,232.2,291.7,234.1,287.5,233.2z"/>
	<path class="st7" d="M186.6,85c-1-0.6-2.1-1.1-3-1.7c-9.3-6.6-18.6-13.3-28-19.8c-2.9-2-2.5-3.7-0.5-6c1.8-2.1,2.6-5,6.4-2.1
		c9.1,6.9,18.6,13.3,27.8,20c1.1,0.8,3.4,1.2,2.4,3.1C190.5,80.8,189.3,83.4,186.6,85z"/>
	<path class="st7" d="M185.3,108c0.6,2.7-0.6,3.3-2.5,3.8c-11.1,2.7-22.2,5.4-33.2,8.3c-3.3,0.9-3.7-1.4-3.6-3
		c0.1-2.2-3.7-5.3,0.8-6.5c11.3-3.1,22.7-6.1,34.2-8.6C186.3,100.8,183.7,106.4,185.3,108z"/>
	<path class="st7" d="M201.6,26.9c2.8-0.9,2.9,0.8,3.1,2c3,11.4,5.7,22.8,8.8,34.1c0.9,3.2-1.1,3.6-3,3.7c-2.2,0.1-5.2,3.6-6.5-1.1
		c-3-11.2-6.1-22.4-8.6-33.7C194.2,26.5,200.3,28.8,201.6,26.9z"/>
	<path class="st7" d="M379.7,235.1c0.7,0.5,1.4,0.9,2,1.4c8,6.7,15.9,13.4,24.1,19.9c4.4,3.5,0.2,5.2-1.2,7.6
		c-1.8,3-3.4,1.7-5.5-0.1c-7.7-6.6-15.5-12.9-23.2-19.4c-1-0.9-3.5-1.6-1.8-3.8C375.7,238.7,376.9,236.2,379.7,235.1z"/>
	<path class="st11" d="M397.7,218.4c-4.5,0-9-0.1-13.5,0c-3.5,0.1-3.2-2.1-3.1-4.2c0.1-2.1-1.1-4.9,2.9-4.9c9.3,0.1,18.6,0.1,27.9,0
		c3.9-0.1,3,2.6,3.1,4.8c0.1,2.5,0.1,4.6-3.5,4.4C407,218.2,402.4,218.4,397.7,218.4z"/>
	<path class="st11" d="M361.2,265.4c0,4.5-0.2,9,0.1,13.4c0.2,3.7-2.1,3.4-4.5,3.4c-2.2-0.1-4.8,0.7-4.7-3.2
		c0.2-9.1,0.2-18.2,0-27.4c-0.1-4.2,2.7-3.2,5-3.4c2.8-0.2,4.4,0.4,4.2,3.7C361,256.5,361.2,260.9,361.2,265.4z"/>
	<path class="st11" d="M283.2,250.2c0.2-3.3-1.5-7.5,4.9-7c3.5,0.3,4.7,1.3,4.3,4.7c-0.1,1.1,0,2.3,0,3.5c0.1,3.3,0.7,6.3-4.7,6.4
		c-5.7,0-4.4-3.4-4.5-6.5C283.2,250.8,283.2,250.5,283.2,250.2z"/>
	<path class="st10" d="M331,180c0.3-4.9,1.4-8.9,1.2-13.1c-0.4-10.4-9.9-16.8-19.6-12.9c-4.4,1.8-8.3,4.3-11.7,7.5
		c-2.7,2.6-4.3,2-6.1-0.8c-2-3-4.3-5.9-6.6-8.7c-1.9-2.3-2.5-4,0.7-5.9c2.7-1.6,5.2-3.6,7.6-5.6c4.7-3.9,7.8-8.6,6.1-15.2
		c-1.7-6.7-5.7-10.6-12.6-11.7c-1.1-0.2-2.3-0.6-3.4-0.7c-10.4-1.6-10.4-1.6-8.6-12.3c0.1-0.8,0.3-1.7,0.2-2.5
		c-0.3-4.9,2.3-6,6.5-5.2c3.4,0.6,6.9,1.3,10.4,1.4c11.4,0.3,18.6-12,12.9-21.8c-1.8-3.1-4.1-6.1-6.4-8.8c-2.4-2.8-2.8-4.9,0.7-7.1
		c3.8-2.4,7.2-6.9,11.1-7.2c4.5-0.4,5.9,5.9,8.8,9.1c4.4,4.9,9.4,8,16.2,6c7-2,10.3-6.8,11-13.8c0.2-1.6,0.7-3.2,0.9-4.9
		c0.8-7.4,0.9-7.6,8.2-6.6c12.4,1.7,12.4,1.7,10.3,14.3c-1.1,6.4,0.5,11.9,6,15.8c5.7,4,11.5,3.6,17.2-0.2c3-2,6-4.2,8.9-6.4
		c2-1.6,3.2-1.8,4.7,0.6c2.3,3.5,4.8,6.8,7.5,9.9c1.9,2.3,1.3,3.8-0.8,5.3c-3.2,2.4-6.4,4.8-9.4,7.3c-4.8,4-5.6,9.5-4.2,15
		c1.3,5.4,5.4,8.7,10.8,9.9c3.9,0.9,7.8,1.6,11.8,2c2.8,0.2,3.4,1.5,3,3.9c-0.7,4.4-1.4,8.8-2,13.3c-0.3,2.6-2.2,2.1-3.7,2
		c-4.3-0.3-8.6-1.1-12.9-1.1c-11.5,0-18.2,11.3-12.6,21.3c2.1,3.7,4.9,7.1,7.5,10.5c1.5,2,1.5,3.3-0.7,4.8c-3.6,2.4-7.1,5-10.4,7.7
		c-2.2,1.9-3.3,1.2-4.7-0.8c-1.9-2.7-4-5.3-6-8c-3.9-5.4-9.2-7.8-15.6-6.3c-6.8,1.7-10.5,6.6-11.7,13.5c-0.3,2-0.5,3.9-0.8,5.9
		c-1.2,7-1.2,7-8.4,6c-2.3-0.3-4.6-0.6-6.9-1C330.8,183.8,330.6,183.6,331,180z M381.3,112.5c0-8.6-0.1-17.3,0-25.9
		c0-2.6-0.6-4.3-3.3-5.4c-8.3-3.4-16.6-6.9-24.8-10.5c-2.2-0.9-4-0.8-6.2,0.1c-7.9,3.5-15.9,6.8-23.9,10.1c-2.8,1.1-4.1,2.6-4.1,5.8
		c0.2,16.9,0.1,33.9,0,50.8c0,3.1,0.9,4.9,3.8,6c8.3,3.3,16.6,6.8,24.9,10.3c2.2,1,4.1,0.5,6.2-0.4c7.9-3.4,15.9-6.8,23.9-10
		c2.6-1,3.5-2.5,3.4-5.2C381.2,129.8,381.3,121.2,381.3,112.5z"/>
	<path class="st10" d="M195.7,155c0.4,2,0.6,2.7,0.7,3.3c0.8,3.4,2.8,6.9,2.2,10.1c-0.7,3.8-5.7,2.7-8.6,4.3
		c-10.7,6-16.7,15-16.5,27c0.3,12.9,6.9,22.4,19.3,27c11.3,4.1,21.6,1.9,30.3-6.5c0.6-0.6,1.2-1.2,1.8-1.8c5.3-5.6,5.4-5.6,11-0.4
		c3.1,2.8,6,5.7,8.9,8.7c2.3,2.4,2.4,4.7,0,7.4c-7.2,8-7.1,8-16.1,2.2c-8.8-5.8-15.3-3.3-17.7,6.8c-0.2,1-0.6,1.9-0.8,2.9
		c-1.5,7.4-3.1,8.4-10.8,7.3c-2.3-0.3-2.5-1.9-2.9-3.4c-0.8-3.2-1.3-6.5-2.3-9.6c-2.1-6.6-8.2-8.9-14.3-5.6
		c-1.3,0.7-2.5,1.6-3.8,2.4c-6.2,4.2-10.2,3.1-14.2-3.4c-1-1.6-0.2-2.5,0.5-3.6c1.4-2.2,3-4.4,4.4-6.6c4.5-7.3,2.3-13.2-6-15.8
		c-1.4-0.5-2.9-0.8-4.3-1.1c-7.7-1.5-8.8-3.2-7.4-11c0.4-2.2,1.9-2.5,3.5-2.9c3.2-0.8,6.6-1.2,9.7-2.3c6.2-2.1,8.5-7.8,5.5-13.6
		c-1.3-2.6-3-5.2-4.9-7.5c-1.9-2.4-1.7-4,0.6-5.8c0.4-0.3,0.7-0.7,1.1-1.1c6.6-6.5,4.3-5.8,11.6-1.1c3.2,2.1,6.4,4.4,10.5,3.9
		C191.8,164.5,193.6,160.4,195.7,155z"/>
	<path class="st10" d="M206.6,218.4c-13.3-0.1-21.6-7.5-23-18c-1.1-8.6,5.8-17.6,15.1-20.3c3.2-0.9,5.1,0,6.5,2.8
		c3.7,7.3,8.1,14.1,13.9,19.9c2.4,2.3,2.2,4.4,0.3,7C215.6,215.1,210.7,218.4,206.6,218.4z"/>
	<path class="st10" d="M288.1,297.2c5.3,0,10.6,0.1,15.9,0c2.3,0,3.2,0.8,3.3,3.1c0.3,5.7-2.3,9.8-8,10.8c-7.7,1.5-15.5,1.5-23.2,0
		c-5.5-1-8.5-5.9-7.9-11.5c0.3-2.4,1.7-2.5,3.4-2.4c0.2,0,0.3,0,0.5,0C277.4,297.2,282.8,297.2,288.1,297.2z"/>
	<path class="st13" d="M287.5,287.1c-5.3,0-10.6-0.1-15.9,0c-3.3,0.1-3.4-1.9-3.2-4.2c0.2-2.2-1.1-5.5,3-5.5
		c11.1-0.1,22.2-0.1,33.3,0c4,0,2.3,3.3,2.5,5.2c0.2,2,0.8,4.5-2.8,4.5C298.7,287.1,293.1,287.1,287.5,287.1z"/>
	<path class="st7" d="M381.3,112.5c0,8.6-0.1,17.3,0.1,25.9c0,2.7-0.8,4.2-3.4,5.2c-8,3.2-16,6.6-23.9,10c-2.1,0.9-4,1.3-6.2,0.4
		c-8.2-3.5-16.5-7-24.9-10.3c-2.9-1.2-3.9-2.9-3.8-6c0.1-16.9,0.2-33.9,0-50.8c0-3.3,1.3-4.7,4.1-5.8c8-3.2,16-6.6,23.9-10.1
		c2.1-0.9,4-1.1,6.2-0.1c8.2,3.6,16.5,7.1,24.8,10.5c2.6,1.1,3.3,2.8,3.3,5.4C381.2,95.2,381.3,103.9,381.3,112.5z M373.1,93.3
		c0.9-4-0.9-5.8-4.5-6.9c-3.3-1-6.4-2.7-9.6-4.1c-3.1-1.3-5-0.7-4.5,3c0.6,4-1.4,6.5-4,9c-6.1,5.9-12,12-18.1,17.9
		c-2.4,2.3-2.4,3.8,0,6.1c2.3,2.3,3.6,2.5,6,0.1c7.6-7.9,15.6-15.5,23.2-23.4c2.6-2.7,4.8-3.2,7.4-0.1c0.9,1,1.8,3,3.4,2.3
		C373.9,96.6,372.9,94.6,373.1,93.3z M327.7,126.9c0.2,4-2.6,8.2,2.6,10.6c4.1,1.9,8.3,3.4,12.4,5.2c2.6,1.2,3.8,0.4,3.4-2.4
		c-0.7-4.6,1.4-7.7,4.7-10.7c5.4-4.9,10.4-10.2,15.6-15.5c2.2-2.3,6-4,1.6-8.2c-4.3-4.1-5.5,0.4-7.3,2.1c-6.6,6.3-13,12.8-19.5,19.3
		c-5.5,5.5-5.5,5.5-11.6,0.4C329.3,127.4,328.8,127.3,327.7,126.9z M373.1,129.7c0-2.5,0.1-4.1,0-5.8c0-0.9,0.4-2.2-0.7-2.6
		c-1.1-0.5-1.8,0.6-2.4,1.3c-4.5,4.4-9,8.9-13.4,13.4c-1.1,1.1-2,2.3-2.1,3.9c-0.2,2.6,0.2,4.5,3.6,2.9c2.7-1.3,5.4-2.7,8.3-3.4
		C371.8,137.8,374.7,134.9,373.1,129.7z M327.4,95.4c0,2.6-0.1,4.4,0,6.2c0.1,1.4,0.8,2.6,2.1,1.3c5.5-5.3,10.9-10.7,16.1-16.3
		c1.1-1.2,1-3.4,0.1-4.7c-1.2-1.7-2.6,0.1-3.9,0.5c-2.5,0.9-4.8,2.4-7.4,3C328.8,86.9,325.8,90,327.4,95.4z"/>
	<path class="st13" d="M373.1,93.3c-0.2,1.3,0.9,3.3-0.8,4c-1.6,0.6-2.5-1.3-3.4-2.3c-2.6-3.1-4.8-2.6-7.4,0.1
		c-7.7,7.9-15.6,15.5-23.2,23.4c-2.4,2.4-3.7,2.2-6-0.1c-2.3-2.3-2.3-3.8,0-6.1c6.1-5.9,12-12,18.1-17.9c2.7-2.5,4.6-5.1,4-9
		c-0.5-3.7,1.4-4.4,4.5-3c3.2,1.4,6.3,3,9.6,4.1C372.2,87.5,374,89.3,373.1,93.3z"/>
	<path class="st13" d="M327.7,126.9c1.1,0.4,1.6,0.5,1.9,0.8c6.1,5.1,6.1,5.1,11.6-0.4c6.5-6.5,12.8-13,19.5-19.3
		c1.8-1.7,3-6.2,7.3-2.1c4.4,4.2,0.6,5.9-1.6,8.2c-5.1,5.2-10.2,10.5-15.6,15.5c-3.3,3-5.4,6.1-4.7,10.7c0.5,2.8-0.8,3.5-3.4,2.4
		c-4.1-1.8-8.3-3.3-12.4-5.2C325.1,135.1,327.9,130.9,327.7,126.9z"/>
	<path class="st13" d="M373.1,129.7c1.5,5.1-1.3,8.1-6.8,9.5c-2.9,0.8-5.6,2.2-8.3,3.4c-3.4,1.6-3.7-0.3-3.6-2.9
		c0.1-1.6,1-2.8,2.1-3.9c4.5-4.5,8.9-8.9,13.4-13.4c0.7-0.7,1.3-1.8,2.4-1.3c1.2,0.5,0.7,1.7,0.7,2.6
		C373.2,125.6,373.1,127.3,373.1,129.7z"/>
	<path class="st13" d="M327.4,95.4c-1.6-5.5,1.4-8.5,7.1-10c2.5-0.7,4.9-2.1,7.4-3c1.2-0.4,2.7-2.3,3.9-0.5c0.9,1.3,1,3.6-0.1,4.7
		c-5.2,5.6-10.7,11-16.1,16.3c-1.3,1.3-2.1,0.1-2.1-1.3C327.3,99.8,327.4,98,327.4,95.4z"/>
</g>
</svg>
