<svg xmlns="http://www.w3.org/2000/svg" width="137.413" height="25.673" viewBox="0 0 137.413 25.673">
  <g id="SOLANA_LOGO_02" transform="translate(68.707 12.837)">
    <g id="Gruppe_1969" data-name="Gruppe 1969" transform="translate(-68.707 -12.837)">
      <path id="Pfad_7484" data-name="Pfad 7484" d="M689.475,108.91a.006.006,0,0,1-.006-.006c0-.006,0-.006-.006-.006h-5.574a1.324,1.324,0,0,1,0-2.649h6.233a.412.412,0,0,0,.276-.107l1.751-1.626a.413.413,0,0,0-.276-.716h-7.984a3.773,3.773,0,0,0,0,7.545h5.279a1.324,1.324,0,0,1,0,2.649h-6.246a.393.393,0,0,0-.264.1l-1.883,1.626a.41.41,0,0,0,.264.722h7.815a.006.006,0,0,0,.006-.006.006.006,0,0,1,.006-.006c.1.006.195.013.3.013a3.773,3.773,0,0,0,.308-7.533Z" transform="translate(-637.443 -97.284)" fill="#192337"/>
      <path id="Pfad_7485" data-name="Pfad 7485" d="M1226.408,114.258h-8.273a.409.409,0,0,1-.408-.414v-9.729a.413.413,0,0,0-.408-.414h-1.576a.409.409,0,0,0-.408.414V115.94a.413.413,0,0,0,.408.414h9.478a.429.429,0,0,0,.3-.132l1.186-1.274A.41.41,0,0,0,1226.408,114.258Z" transform="translate(-1139.048 -97.191)" fill="#192337"/>
      <path id="Pfad_7486" data-name="Pfad 7486" d="M955.082,103.706h-8.606V103.7a2.356,2.356,0,0,0-2.241,2.241v8.053a2.338,2.338,0,0,0,2.241,2.341h8.6a2.351,2.351,0,0,0,2.241-2.341v-8.047A2.341,2.341,0,0,0,955.082,103.706Zm-.207,8.656v.063a1.472,1.472,0,0,1-1.4,1.475h-5.392a1.471,1.471,0,0,1-1.4-1.475V107.36a1.468,1.468,0,0,1,1.4-1.412h5.392a1.473,1.473,0,0,1,1.4,1.412Z" transform="translate(-884.965 -97.191)" fill="#192337"/>
      <path id="Pfad_7487" data-name="Pfad 7487" d="M1460.006,103.8h-8.355a2.329,2.329,0,0,0-2.316,2.348v9.886a.412.412,0,0,0,.408.414h1.607a.408.408,0,0,0,.408-.414V111.96a.413.413,0,0,1,.408-.414h7.244a.409.409,0,0,1,.408.414v4.074h-.019a.413.413,0,0,0,.408.414h1.607a.409.409,0,0,0,.408-.414v-9.893A2.33,2.33,0,0,0,1460.006,103.8Zm-.207,5.5a.413.413,0,0,1-.408.414h-7.244a.412.412,0,0,1-.408-.414v-2.034a1.422,1.422,0,0,1,1.412-1.431h5.235a1.423,1.423,0,0,1,1.412,1.431Z" transform="translate(-1358.36 -97.284)" fill="#192337"/>
      <path id="Pfad_7488" data-name="Pfad 7488" d="M1992.325,103.7h-8.449a2.347,2.347,0,0,0-2.341,2.348v9.886a.409.409,0,0,0,.408.414h1.619a.412.412,0,0,0,.408-.414V111.86a.408.408,0,0,1,.408-.414h7.326a.412.412,0,0,1,.407.414v4.074a.409.409,0,0,0,.408.414v-.006h1.638a.413.413,0,0,0,.408-.414v-9.886A2.351,2.351,0,0,0,1992.325,103.7Zm-.22,5.5a.408.408,0,0,1-.408.414h-7.325a.413.413,0,0,1-.408-.414v-2.034a1.425,1.425,0,0,1,1.425-1.431h5.292a1.429,1.429,0,0,1,1.425,1.431Z" transform="translate(-1857.153 -97.191)" fill="#192337"/>
      <path id="Pfad_7489" data-name="Pfad 7489" d="M1727.533,103.7h-1.607a.413.413,0,0,0-.408.414v8.053a.407.407,0,0,1-.716.27l-7.206-8.593a.39.39,0,0,0-.308-.144h-1.845a.413.413,0,0,0-.408.414v11.832a.409.409,0,0,0,.408.414h1.619a.413.413,0,0,0,.408-.414v-7.878a.408.408,0,0,1,.716-.27l7.332,8.531c.006.006.006.006.006.013a.013.013,0,0,0,.012.013h2a.413.413,0,0,0,.408-.414V104.114A.409.409,0,0,0,1727.533,103.7Z" transform="translate(-1607.381 -97.191)" fill="#192337"/>
      <path id="Pfad_7490" data-name="Pfad 7490" d="M32.222,307.2H6.078a1.065,1.065,0,0,0-.753.314L.159,312.68a.532.532,0,0,0,.377.91H26.68a1.064,1.064,0,0,0,.753-.314L32.6,308.11A.532.532,0,0,0,32.222,307.2Z" transform="translate(0 -287.917)" fill="#192337"/>
      <path id="Pfad_7491" data-name="Pfad 7491" d="M32.222,0H6.078a1.064,1.064,0,0,0-.753.314L.159,5.48a.532.532,0,0,0,.377.91H26.68a1.064,1.064,0,0,0,.753-.314L32.6.91A.532.532,0,0,0,32.222,0Z" transform="translate(0)" fill="#192337"/>
      <path id="Pfad_7492" data-name="Pfad 7492" d="M27.433,152.914a1.065,1.065,0,0,0-.753-.314H.536a.532.532,0,0,0-.377.91l5.166,5.16a1.065,1.065,0,0,0,.753.314H32.222a.532.532,0,0,0,.377-.91Z" transform="translate(0 -143.021)" fill="#192337"/>
    </g>
  </g>
</svg>
