<?xml version="1.0" encoding="utf-8"?>
<!-- Generator: Adobe Illustrator 26.0.3, SVG Export Plug-In . SVG Version: 6.00 Build 0)  -->
<svg version="1.1" id="Ebene_1" xmlns="http://www.w3.org/2000/svg" x="0px" y="0px"
     viewBox="0 0 575 350" style="enable-background:new 0 0 575 350;" xml:space="preserve">
<style type="text/css">
	.st0{fill:#FE9898;}
	.st1{fill:#FEFBFB;}
	.st2{fill:#FEFDFD;}
	.st3{fill:#FEFEFE;}
	.st4{fill:#FEFAFA;}
	.st5{fill:#FEF4F4;}
	.st6{fill:#FEF5F5;}
	.st7{fill:#FEFCFC;}
	.st8{fill:#FEF7F7;}
	.st9{fill:#FE9999;}
	.st10{fill:#FE9A9A;}
	.st11{fill:#FDFDFD;}
	.st12{fill:#ECECEC;}
	.st13{fill:#FE9C9C;}
	.st14{clip-path:url(#SVGID_00000051370482300035480520000016940182459865282729_);}
	.st15{fill:#192337;}
</style>
<rect x="-1" class="st0" width="577" height="350"/>
<g>
	<path class="st1" d="M282.4,316.1c-30.6,0-61.3-0.1-91.9,0.1c-5.3,0-6.5-1.7-6.4-6.5c0.1-11.3,3.5-21,12.4-28.2
		c2.6-2.1,4.1-4.7,5.3-7.7c2.4-6.4,4.8-12.8,7.2-19.2c3.2-8.4,9.1-13.7,17.9-15.7c6.5-1.5,12.9-3.4,19.4-4.8c3.2-0.7,5-2.3,5.5-5.5
		c1-6.4,3.8-11.5,10-14.6c3.2-1.6,2.3-7.1-1.7-10.4c-7.8-6.5-13.4-14.5-14.4-24.8c-1-10.4-1.5-21,1-31.3
		c4.3-17.6,20.7-28.6,40.1-27.4c16.6,1.1,31.2,15.2,32.9,32.3c0.9,8.8,0.6,17.6,0,26.5c-0.8,10.1-5.6,18-13.6,24
		c-2.3,1.8-4.3,3.7-4.4,6.9c0,2.1,0.3,3.8,2.7,4.8c5.1,2.1,7.8,6.1,8.5,11.5c0.7,5.5,4.1,8.2,9.2,8.9c6.3,0.8,12.3,2.8,18.4,4.5
		c7.1,2,12.3,6.5,15.2,13.4c1.8,4.3,3.5,8.7,5,13.1c2.5,7.3,5.7,13.8,11.7,19.3c8.3,7.5,9.3,18,8.6,28.6c-0.2,2.9-2.4,2.3-4.1,2.3
		c-9.2,0.1-18.3,0-27.5,0C327,316,304.7,316,282.4,316.1C282.4,316,282.4,316,282.4,316.1z M282.4,274.2c2.7,0,5.3,0,8,0
		c19,0,38,0,57,0c6.2,0,6.3,0,4-6c-1.6-4.2-3.3-8.4-5-12.5c-1.2-3.1-3.5-5.5-6.6-6.3c-12.5-3.2-24.7-7.9-38-7.6
		c-10.7,0.2-21.3,0.3-32,0c-9.9-0.3-19.4,1.8-29.1,3.2c-15.1,2.3-24.2,9.2-27.4,24.4c-1,4.5-0.2,4.9,3.7,4.9
		C238.8,274.1,260.6,274.2,282.4,274.2z M282.5,306.8c27.8,0,55.6,0,83.5,0c5.4,0,6.1-1,4.7-6.2c-2.6-9.6-11-16.7-21.2-16.7
		c-44.5-0.1-89-0.1-133.4,0c-9.9,0-18.3,6.7-21.2,16.1c-1.8,5.9-1.2,6.8,4.7,6.8C227.2,306.8,254.8,306.8,282.5,306.8z M254.7,164.6
		c0,2,0.1,3,0,4c-0.9,11.6,2.3,21.3,12.3,28.2c2.8,1.9,4.2,5,5.8,8c1.3,2.6-0.7,6.7,2.8,7.8c2.7,0.9,5.9,0.3,8.9,0.3
		c1.5,0,3-0.1,4.5,0c2.1,0.1,3.1-0.7,3-2.9c-0.3-6.5,3.2-10.9,8-14.7c5.2-4,9.2-8.9,9.8-15.6c0.9-8.8,1.7-17.5,0.5-26.4
		c-1.9-13.6-12.8-23.5-27-24.1c-13.2-0.6-25,8.6-27.8,21.9C254.5,156,254.8,160.8,254.7,164.6z M282.5,232c5.5,0,11,0.1,16.4,0
		c1.7,0,4.2,1,4.8-1.2c0.6-2.4-0.3-4.9-2.3-6.8c-1.2-1.1-2.8-1-4.2-1c-9.5,0-18.9,0-28.4,0c-2,0-4,0.2-5.5,1.9
		c-1.5,1.7-2.6,3.8-2.1,5.9c0.6,2.3,3.1,1.2,4.7,1.2C271.5,232.1,277,232,282.5,232z"/>
	<path class="st2" d="M391.1,35.9c28.8,0,57.7,0,86.5,0c12.6,0,17.4,4.9,17.4,17.6c0,26,0,52,0,78c0,11.1-5.4,16.5-16.7,16.5
		c-47.7,0-95.3,0-143,0.1c-3.8,0-6-0.5-5.7-5c0.2-3.2,1.2-4.4,4.4-4.3c10.3,0.1,20.7,0,31,0c36.8,0,73.6,0,110.5,0
		c9,0,10.1-1,10.1-10c0-24.8,0-49.6,0-74.5c0-8-1.3-9.2-9.4-9.2c-56.8,0-113.6,0-170.5,0c-8.2,0-9,0.8-9,9.2c0,16.7,0,33.3,0,50
		c0,3.3,0.7,6.6-4.7,6.6c-5.2,0-5-2.7-5-6.3c0.1-17,0-34,0-51c0-12.7,4.9-17.6,17.5-17.6C333.4,35.9,362.2,35.9,391.1,35.9z"/>
	<path class="st3" d="M177.6,35.9c27.8,0,55.6,0,83.5,0c12,0,16.9,5,16.9,17.1c0,17.3-0.1,34.6,0,52c0,3.5-0.3,5.5-4.7,5.5
		c-4.6,0-4.6-2.5-4.6-5.7c0.1-16.7,0.1-33.3,0-50c0-8.7-1.1-9.7-9.8-9.7c-54.3,0-108.6,0-162.9,0c-8.9,0-9.7,0.9-9.7,9.7
		c0,24.7,0,49.3,0,74c0,9.3,0.8,10.1,10.4,10.1c44.5,0,89,0.1,133.4-0.1c4.2,0,6.1,0.9,5.8,5.5c-0.2,3.2-1.4,3.9-4.3,3.9
		c-46.5-0.1-93,0-139.4-0.1c-9.6,0-15.2-5.7-15.2-15.4c-0.1-27.2-0.1-54.3,0-81.5C77,41.3,82.3,36,92.2,36
		C120.7,35.9,149.1,35.9,177.6,35.9z"/>
	<path class="st1" d="M407.2,157.1c22.8,0,45.6,0,68.5,0c14.8,0,19.2,4.5,19.2,19.5c0,22.2,0,44.3,0,66.5c0,12-5,16.9-17,17
		c-35.1,0-70.3-0.1-105.4,0.1c-4.4,0-6-1.1-5.6-5.6c0.2-2.8,1.2-3.8,3.9-3.7c7.7,0.1,15.3,0,23,0c27.5,0,55,0,82.4,0
		c8.3,0,9.1-0.8,9.1-9.2c0-22.2,0-44.3,0-66.5c0-7.6-0.7-8.3-8.2-8.3c-47.1,0-94.3,0-141.4,0c-3.4,0-6.2,0.3-6-4.7
		c0.2-3.9,1.3-5.1,5.2-5.1C358.9,157.2,383.1,157.1,407.2,157.1z"/>
	<path class="st1" d="M161.6,157.1c23,0,46,0.1,69-0.1c3.7,0,5.4,0.7,5.3,4.9c0,4.2-1.8,5-5.4,4.9c-44.8-0.1-89.6-0.1-134.4-0.1
		c-9.2,0-9.3,0.1-9.3,9.1c0,21.7,0,43.3,0,65c0,9.5,0.4,9.9,9.8,9.9c32.1,0,64.3,0,96.4,0c2.7,0,5.2-0.4,5.3,3.9
		c0.1,4.1-1.1,5.4-5.3,5.4c-33.6-0.2-67.3-0.1-100.9-0.1c-9.4,0-14.9-5.4-14.9-14.9c-0.1-24,0-48,0-72c0-10.5,5.5-16,16.1-16
		C115.9,157.1,138.7,157.1,161.6,157.1z"/>
	<path class="st4" d="M416.9,62.8c-0.6,0.8-1.2,1.6-1.9,2.3c-10.6,10.3-21.3,20.6-31.9,30.9c-1.9,1.9-3.2,1.7-4.9-0.2
		c-2.5-2.7-5.4-5-7.7-7.9c-2.5-3.1-4.2-2.5-6.6,0.1c-5.5,5.8-11.4,11.2-16.8,17.1c-2.7,2.9-4.5,2.8-6.6-0.2
		c-0.2-0.3-0.4-0.5-0.7-0.7c-3.6-3.2-6.4-9.4-10.4-9.2c-3.5,0.2-6.8,5.8-10.1,9c-2.5,2.4-5.1,4.8-7.4,7.4c-2.4,2.7-3.9,1-5.7-0.8
		c-1.8-1.8-3.2-3.2-0.7-5.7c7.2-6.9,14.3-14,21.3-21.1c2.1-2.1,3.7-2.3,5.7,0c2.5,2.9,5.5,5.4,8,8.2c1.9,2.1,3.3,2,5.3,0
		c5.8-6,11.8-11.8,17.5-17.8c2.4-2.5,4.1-2.6,6.4,0c2.4,2.8,5.2,5.1,7.7,7.9c2.2,2.5,3.8,2.3,6.1,0c8-8,16.3-15.7,24.5-23.5
		c1.1-1,2-3.3,4-1.6C413.9,58.6,415.9,60.2,416.9,62.8z"/>
	<path class="st4" d="M217.1,82.6c-5.9,3.4-10.9,6.3-16.5,9.5c0.1-6.1-4.1-5.2-7.7-5.2c-27.8,0-55.5,0-83.3,0.1
		c-3.2,0-5.3-0.3-5.4-4.4c0-4,1.4-5.1,5.2-5.1c16.1,0.2,32.3,0.1,48.4,0.1c12.5,0,24.9,0,37.4,0c2,0,4.5,0.7,4.8-2.7
		c0.2-2.1,1.6-1.1,2.5-0.6C207.2,76.7,211.7,79.4,217.1,82.6z"/>
	<path class="st4" d="M169.2,105.9c-14.1,0-28.3,0-42.4,0c-2.2,0-4.8-0.7-5.1,3c-0.2,2.5-1.8,1.2-2.8,0.6c-3.9-2.2-7.8-4.5-11.7-6.7
		c-2.4-1.3-1.7-2.3,0.2-3.4c2.9-1.6,5.7-3.4,8.7-4.9c2.2-1.2,4.8-4.7,6.5,0.9c0.5,1.7,3.3,1,5.1,1c27.9,0,55.9,0.1,83.8-0.1
		c4.1,0,6.1,0.7,5.8,5.4c-0.2,3.4-1.5,4.1-4.6,4.1C198.1,105.8,183.6,105.9,169.2,105.9z"/>
	<path class="st5" d="M140.5,213.3c13,0,26,0.1,38.9-0.1c3.9-0.1,4.7,1.5,4.7,5c0,3.3-0.9,4.7-4.5,4.7c-26.5-0.1-52.9-0.1-79.4,0
		c-3.6,0-4.4-1.4-4.5-4.7c-0.1-3.6,0.9-5,4.8-5C113.8,213.4,127.2,213.3,140.5,213.3z"/>
	<path class="st6" d="M435.4,222.9c-11.8,0-23.7-0.1-35.5,0.1c-3.5,0-5-0.8-5.1-4.7c0-4.1,1.4-5.1,5.2-5c23.7,0.1,47.3,0.1,71,0
		c3.5,0,5,0.8,5,4.7c0,4-1.3,5.1-5.2,5C459.1,222.7,447.2,222.9,435.4,222.9z"/>
	<path class="st3" d="M431.1,120.1c13.3,0,26.6,0.1,40-0.1c3.6,0,5,0.8,5,4.7c-0.1,3.6-1.3,4.5-4.7,4.5c-27-0.1-53.9-0.1-80.9,0
		c-3.3,0-4.7-0.8-4.7-4.4c-0.1-3.8,1.3-4.8,4.9-4.7C404.2,120.2,417.7,120.1,431.1,120.1z"/>
	<path class="st3" d="M140,185.1c-13,0-26-0.1-39,0c-3.3,0-5.3-0.3-5.2-4.5c0.1-3.8,1.3-4.8,4.9-4.8c26.2,0.1,52.3,0.1,78.5,0
		c3.6,0,4.9,0.8,5,4.7c0,4.1-1.8,4.5-5.2,4.5C166,185.1,153,185.1,140,185.1z"/>
	<path class="st2" d="M139.5,204c-13,0-26-0.1-38.9,0.1c-3.4,0-4.7-0.9-4.7-4.5c0-3.4,0.9-4.6,4.5-4.6c26.5,0.1,52.9,0.1,79.4,0
		c3.6,0,4.4,1.4,4.4,4.7c0.1,3.7-1.5,4.4-4.8,4.4C166.1,203.9,152.8,204,139.5,204z"/>
	<path class="st7" d="M139.5,241.1c-12.8,0-25.6-0.1-38.4,0c-3.2,0-5.3-0.2-5.3-4.4c0-3.9,1.4-4.7,5-4.7c26.1,0.1,52.3,0.1,78.4,0
		c3.6,0,4.9,0.8,5,4.7c0,4.2-2,4.5-5.2,4.4C165.8,241.1,152.6,241.1,139.5,241.1z"/>
	<path class="st3" d="M435.9,185.1c-12,0-24-0.1-36,0.1c-3.6,0.1-5.1-0.8-5-4.7c0.1-3.5,1.2-4.5,4.7-4.5c24,0.1,48,0.1,72,0
		c3.7,0,4.4,1.4,4.4,4.7c0.1,3.5-1.1,4.6-4.6,4.5C459.6,185,447.8,185.1,435.9,185.1z"/>
	<path class="st7" d="M434.9,204c-11.7,0-23.3-0.1-35,0.1c-3.5,0.1-5.1-0.8-5-4.7c0.1-3.6,1.4-4.4,4.8-4.4c24,0.1,47.9,0.1,71.9,0
		c3.6,0,4.4,1.3,4.5,4.7c0.1,3.6-1.4,4.5-4.7,4.4C459.2,203.9,447.1,204,434.9,204z"/>
	<path class="st7" d="M435.4,232.1c12,0,24,0.1,36-0.1c3.4,0,4.7,1,4.6,4.5c-0.1,3.3-0.8,4.7-4.5,4.7c-24-0.1-48-0.1-71.9,0
		c-3.4,0-4.6-1-4.7-4.5c-0.1-3.9,1.5-4.7,5-4.7C411.8,232.2,423.6,232.1,435.4,232.1z"/>
	<path class="st4" d="M475.8,82.1c0.7,3.8-0.8,5-4.3,4.9c-8.2-0.2-8-0.9-7.9,7.7c0.1,3.6-0.6,5.4-4.9,5.5c-4.6,0-4.7-2.2-4.7-5.6
		c0.1-8.6,0.6-7.7-7.9-7.5c-3.6,0.1-5.1-0.8-5-4.7c0-3.7,1.3-5.2,5-4.8c1.2,0.1,2.3-0.1,3.5,0c3.5,0.4,4.9-1.2,4.6-4.6
		c-0.1-1.2,0.1-2.3,0-3.5c-0.5-3.8,1.7-4.2,4.8-4.3c3.3-0.1,5.1,0.8,4.7,4.4c-0.1,0.8,0.1,1.7,0,2.5c-0.5,4,1,6,5.3,5.5
		c0.8-0.1,1.7,0.1,2.5,0C475,77.1,476.8,78.4,475.8,82.1z"/>
	<path class="st5" d="M216.9,222.9c-5,0-10-0.1-14.9,0c-3.9,0.1-3.7-2.3-3.7-4.9c0-2.7,0-4.9,3.8-4.8c10,0.2,19.9,0.2,29.9,0
		c4.1-0.1,3.9,2.3,4,5.1c0.1,3-0.5,4.7-4.1,4.6C226.8,222.7,221.9,222.9,216.9,222.9z"/>
	<path class="st1" d="M216.6,204c-5,0-10-0.1-15,0c-3.2,0.1-3.5-1.8-3.3-4.2c0.1-2.2-0.7-4.9,3.1-4.9c10.3,0,20.6,0.1,31,0
		c3.7,0,3.3,2.4,3.4,4.7c0.1,2.6-0.2,4.6-3.7,4.4C226.9,203.8,221.8,204,216.6,204z"/>
	<path class="st2" d="M217.1,185.1c-5,0-10-0.1-15,0c-3.5,0.1-3.5-2.1-3.5-4.6c0-2.5,0-4.6,3.5-4.6c10.1,0.1,20.3,0.1,30.4,0
		c3.3,0,3.2,2.1,3.2,4.3c-0.1,2.3,0.5,4.9-3.2,4.8C227.4,185.1,222.3,185.1,217.1,185.1z"/>
	<path class="st5" d="M343.6,222.8c-3,0-6-0.2-9,0c-3.7,0.3-5.4-0.9-5.3-5c0-3.8,1.5-4.8,5.1-4.7c6.1,0.2,12.3,0.2,18.4,0
		c3.6-0.1,5,0.9,5,4.7c0.1,4.1-1.5,5.3-5.3,5C349.6,222.6,346.6,222.8,343.6,222.8z"/>
	<path class="st4" d="M320.1,63.9c-2.8,0-5.6,0-8.5,0c-5.7,0-6.1-0.7-5.7-6.4c0.2-2.1,0.9-3.1,3-3.1c7.3,0,14.6,0,21.9,0
		c3.8,0,3,2.6,3.1,4.9c0.1,2.4,0.2,4.8-3.4,4.6C327.1,63.8,323.6,63.9,320.1,63.9z"/>
	<path class="st3" d="M343.4,176.1c3,0,6,0.2,9-0.1c3.7-0.3,5,0.9,4.9,4.7c0,3.6-1.5,4.5-4.8,4.4c-6.3-0.2-12.6-0.2-18.9,0
		c-3.8,0.1-3.8-2.1-3.8-4.8c0-2.6,0.2-4.6,3.7-4.4C336.7,176.2,340.1,176.1,343.4,176.1z"/>
	<path class="st2" d="M343.4,204c-2.8,0-5.7-0.1-8.5,0c-3.2,0.2-5.3-0.1-5.3-4.3c-0.1-4.4,2-4.8,5.5-4.7c6.1,0.2,12.3,0.2,18.4,0
		c3.8-0.1,3.7,2.2,3.7,4.9c0.1,2.8-0.7,4.4-3.9,4.2C350,203.8,346.7,204,343.4,204z"/>
	<path class="st1" d="M247.5,105.9c-2,0-4,0-6,0c-5.7,0-6-0.5-5.7-6.3c0.1-2.4,1.1-3.2,3.3-3.2c5.5,0,10.9,0.1,16.4,0
		c4.1-0.1,3.3,2.7,3.4,5.1c0.1,2.5-0.1,4.7-3.5,4.4C252.8,105.8,250.1,105.9,247.5,105.9z"/>
	<path class="st8" d="M247.4,68.8c-2,0-4-0.2-6,0.1c-5,0.7-5.8-1.8-5.6-6c0.2-2.9,1.2-3.8,3.9-3.7c5.2,0.1,10.3,0.2,15.5,0
		c3.8-0.2,3.9,2,3.8,4.8c-0.1,2.6,0.3,5.2-3.6,5C252.8,68.7,250.1,68.8,247.4,68.8z"/>
	<path class="st3" d="M247.7,78.1c2,0,4,0,6,0c5,0,6.6,2.2,5.3,7.1c-0.5,1.8-1.6,1.9-3,1.9c-5.6,0-11.3-0.1-16.9,0
		c-3.9,0.1-2.9-2.7-3-4.9c-0.2-2.3,0-4.4,3.2-4.2C242,78.2,244.9,78.1,247.7,78.1z"/>
	<path class="st8" d="M205.4,124.7c-1.3,0-2.7-0.1-4,0c-3.6,0.3-5.3-0.8-5.4-4.9c-0.1-4.5,2.2-4.8,5.6-4.6c3.1,0.1,6.3,0.2,9.4,0
		c4.1-0.3,3.8,2.3,4,5.1c0.1,3.1-0.7,4.7-4.1,4.4C209,124.6,207.2,124.7,205.4,124.7z"/>
	<path class="st8" d="M245,124.8c-1.3,0-2.7-0.1-4,0c-3.7,0.4-5.2-0.7-5.3-4.9c-0.1-4.5,2.1-4.8,5.5-4.7c2.5,0.1,5,0.1,7.5,0
		c3.2-0.1,6.1-0.5,6.1,4.6c0,5.1-2.8,5.2-6.3,5C247.4,124.7,246.2,124.8,245,124.8z"/>
	<path class="st4" d="M113.9,59.2c1.2,0,2.3,0,3.5,0c5.7,0,6,0.5,5.7,6.3c-0.1,2.4-1.1,3.2-3.3,3.2c-3.1,0-6.3,0-9.4,0
		c-3.2,0-6.1,0.5-6.2-4.5c-0.1-5.1,2.7-5.2,6.3-4.9C111.6,59.3,112.7,59.2,113.9,59.2z"/>
	<path class="st3" d="M338.9,129.1c-1.3,0-2.7-0.1-4,0c-3.6,0.4-5.3-0.6-5.3-4.8c0-4.3,2.3-4.4,5.3-4.3c2.5,0.1,5,0,7.4,0
		c3,0,5.7-0.6,5.8,4.3c0,4.8-2.3,5-5.8,4.7C341.2,129,340,129.1,338.9,129.1z"/>
	<path class="st3" d="M366.6,129.1c-1.2,0-2.3-0.1-3.5,0c-3.1,0.2-5.3,0.1-5.3-4.3c0-4.3,1.8-5,5.4-4.8c2.8,0.2,5.7,0.2,8.5,0
		c3.5-0.3,4.6,1.1,4.6,4.6c0,3.5-1.1,4.9-4.6,4.5C369.9,128.9,368.2,129.1,366.6,129.1z"/>
	<path class="st4" d="M205.7,232.1c2.2,0.8,6.3-2,6.5,3.7c0.1,4-0.9,6-5.2,5.4c-1-0.1-2-0.1-3,0c-3.4,0.2-6,0.2-6-4.7
		c0-4.7,2.7-4.5,5.8-4.4C204.3,232.1,204.8,232.1,205.7,232.1z"/>
	<path class="st5" d="M380.8,217.9c0.9,4.1-1,5-4.6,5.1c-4.1,0.1-4.4-1.9-4.5-5.2c-0.1-3.5,1.1-4.6,4.6-4.6
		C379.9,213.2,381.8,214.2,380.8,217.9z"/>
	<path class="st2" d="M380.8,180.7c0.8,3.8-1.2,4.4-4.5,4.5c-3.3,0-4.7-0.8-4.7-4.4c0-3.9,1.4-4.8,5-4.8
		C380.2,176,381.5,177.3,380.8,180.7z"/>
	<path class="st2" d="M376.2,203.9c-3.8,0.8-4.3-1.4-4.4-4.6c-0.1-3.5,1.2-4.5,4.6-4.6c4-0.1,4.6,1.6,4.6,5.1
		C381.1,203.6,379.4,204.4,376.2,203.9z"/>
	<path class="st7" d="M380.9,236.6c0.7,3.5-0.9,4.5-4.3,4.6c-3.8,0.1-4.8-1.3-4.8-4.9c0-3.7,1.6-4.3,4.8-4.3
		C380,232,381.5,233.1,380.9,236.6z"/>
	<path class="st9" d="M282.4,274.2c-21.8,0-43.6-0.1-65.4,0.1c-3.9,0-4.6-0.4-3.7-4.9c3.2-15.2,12.3-22.2,27.4-24.4
		c9.7-1.5,19.2-3.5,29.1-3.2c10.7,0.3,21.3,0.2,32,0c13.3-0.3,25.5,4.4,38,7.6c3.2,0.8,5.4,3.2,6.6,6.3c1.7,4.2,3.4,8.3,5,12.5
		c2.3,6,2.3,6-4,6c-19,0-38,0-57,0C287.8,274.2,285.1,274.2,282.4,274.2z"/>
	<path class="st10" d="M282.5,306.8c-27.7,0-55.3,0-83,0c-5.9,0-6.6-1-4.7-6.8c3-9.4,11.3-16.1,21.2-16.1c44.5-0.1,89-0.1,133.4,0
		c10.2,0,18.7,7.1,21.2,16.7c1.4,5.2,0.7,6.2-4.7,6.2C338.1,306.8,310.3,306.8,282.5,306.8z"/>
	<path class="st9" d="M254.7,164.6c0.1-3.8-0.2-8.6,0.8-13.4c2.8-13.2,14.5-22.4,27.8-21.9c14.1,0.6,25.1,10.6,27,24.1
		c1.2,8.8,0.4,17.6-0.5,26.4c-0.7,6.7-4.6,11.6-9.8,15.6c-4.9,3.7-8.3,8.2-8,14.7c0.1,2.2-1,3-3,2.9c-1.5-0.1-3,0-4.5,0
		c-3,0-6.2,0.6-8.9-0.3c-3.5-1.2-1.4-5.3-2.8-7.8c-1.5-3-3-6.1-5.8-8c-10-6.9-13.2-16.7-12.3-28.2
		C254.7,167.7,254.7,166.7,254.7,164.6z"/>
	<path class="st9" d="M282.5,232c-5.5,0-11,0.1-16.4-0.1c-1.6,0-4.1,1.1-4.7-1.2c-0.5-2,0.5-4.2,2.1-5.9c1.5-1.6,3.4-1.9,5.5-1.9
		c9.5,0,18.9,0,28.4,0c1.5,0,3-0.1,4.2,1c1.9,1.9,2.9,4.3,2.3,6.8c-0.6,2.3-3.1,1.2-4.8,1.2C293.4,232.1,288,232,282.5,232z"/>
</g>
</svg>
