<svg xmlns="http://www.w3.org/2000/svg" width="30.832" height="25" viewBox="0 0 30.832 25">
  <g id="SOCIAL_TWITTER_1" transform="translate(15.416 12.5)">
    <path id="Pfad_2057" data-name="Pfad 2057" d="M30.832,2.744A12.771,12.771,0,0,1,27.379,3.8,6.162,6.162,0,0,0,29.887.342,11.646,11.646,0,0,1,25.814,1.9a5.633,5.633,0,0,0-.766-.679,6.5,6.5,0,0,0-6.569-.6,6.339,6.339,0,0,0-3.144,3.532,7.069,7.069,0,0,0-.177,3.532A18.987,18.987,0,0,1,2.231,1.013C-.594,5.958,3.962,9.419,3.962,9.419a9.22,9.22,0,0,1-2.755-.636,6.712,6.712,0,0,0,4.839,6.181,7.361,7.361,0,0,1-2.543.247c1.837,4.6,5.9,4.238,5.9,4.238S6.434,22.558,0,22.134c0,0,5.628,3.528,11.7,2.755a19.122,19.122,0,0,0,11.514-6.11c1.056-1.184,4.943-5.541,4.521-11.338-.026-.359-.059-.79-.119-1.257A9.421,9.421,0,0,0,30.832,2.744Z" transform="translate(-15.416 -12.5)" fill="#fff"/>
  </g>
</svg>
