<?xml version="1.0" encoding="utf-8"?>
<!-- Generator: Adobe Illustrator 26.0.3, SVG Export Plug-In . SVG Version: 6.00 Build 0)  -->
<svg version="1.1" id="Ebene_1" xmlns="http://www.w3.org/2000/svg" x="0px" y="0px"
     viewBox="0 0 575 350" style="enable-background:new 0 0 575 350;" xml:space="preserve">
<style type="text/css">
	.st0{fill:#FE9898;}
	.st1{fill:#FEFBFB;}
	.st2{fill:#FEFDFD;}
	.st3{fill:#FEFEFE;}
	.st4{fill:#FEFAFA;}
	.st5{fill:#FEF4F4;}
	.st6{fill:#FEF5F5;}
	.st7{fill:#FEFCFC;}
	.st8{fill:#FEF7F7;}
	.st9{fill:#FE9999;}
	.st10{fill:#FE9A9A;}
	.st11{fill:#FDFDFD;}
	.st12{fill:#ECECEC;}
	.st13{fill:#FE9C9C;}
	.st14{clip-path:url(#SVGID_00000059289623305576949080000012001507282240130746_);}
	.st15{fill:#192337;}
</style>
<rect class="st0" width="577" height="350"/>
<g>
	<path class="st7" d="M290.8,305.2c-35,0-69.9,0-104.9,0c-23,0-37.4-14.3-37.4-37.3c0-65.6,0-131.2,0-196.8
		c0-14.5,7.4-24.7,20.3-28.4c3.1-0.9,6.3-0.8,9.4-0.8c28.6,0,57.3-0.5,85.9,0.2c14.3,0.3,27.3-1.9,39.4-9.5
		c3.7-2.3,7.7-3.8,12.2-3.6c3.2,0.1,5.6,1,6.7,4.1c2.7,7.2,7.5,9.5,15.3,9.1c13.8-0.8,27.6-0.3,41.4-0.2
		c15.3,0.1,26.6,11.5,26.8,26.9c0.1,5.5,0.1,11,0,16.4c0,2.3,0.4,3.4,3.1,3.8c15,2.3,23.9,12.8,23.9,27.8c0,51.2,0,102.3,0,153.5
		c0,20.3-14.5,34.8-34.9,34.8C362.4,305.3,326.6,305.2,290.8,305.2z M291,291.4c36,0,71.9,0.1,107.9,0c12.2,0,20.3-8.2,20.4-20.3
		c0.1-14-0.1-27.9,0.2-41.9c0.1-4.1-1.5-5.1-5.2-4.9c-6.8,0.2-13.6,0.2-20.5,0c-16.5-0.3-28.6-12.3-28.5-27.9
		c0.2-14.8,12.6-26.4,28.6-26.6c7-0.1,14-0.2,21,0.1c3.5,0.1,4.6-1,4.5-4.5c-0.2-15.4-0.1-30.9-0.1-46.3c0-12.3-4.1-16.3-16.6-16.3
		c-74.1,0-148.1,0-222.2,0c-4.3,0-8.8-0.2-12.8-1.7c-4.7-1.9-5.4-0.4-5.4,4.1c0.1,54.3,0.1,108.6,0.1,163c0,15.5,7.8,23.4,23.2,23.4
		C220.7,291.4,255.8,291.4,291,291.4z M215.1,87.9c0.1,0.3,0.2,0.7,0.2,1c37.8,0,75.6,0,113.3,0c0.7,0,1.3-0.1,2,0
		c4.1,0.4,3.4-1.5,2.1-4c-6.1-12-12.4-23.9-18.1-36.1c-2-4.3-3.9-5-8.2-2.9c-18.6,8.9-37.4,17.4-56.1,26
		C238.7,77.3,226.9,82.6,215.1,87.9z M259.3,56c-0.1-0.3-0.1-0.5-0.2-0.8c-0.3,0-0.7-0.1-1-0.1c-25.4,0-50.9,0.2-76.3-0.1
		c-9.1-0.1-13.8,2-18.1,13.5c-2.3,6.2-1.8,12.3,3.2,17c5.1,4.9,11.1,4.1,17.2,1.6c12-5,24-9.7,36-14.6
		C233.2,67.1,246.2,61.5,259.3,56z M357.5,55.1c-6.8,0-13.6,0.1-20.4-0.1c-3.6-0.1-4.5,0.8-2.7,4.2c4.5,8.7,8.8,17.5,13,26.3
		c1.3,2.7,3,3.5,5.8,3.5c11.6-0.1,23.3-0.1,34.9,0c3.1,0,4.5-0.8,4.3-4.1c-0.3-5,0-9.9-0.1-14.9c-0.1-9.6-5.1-14.6-14.9-14.8
		C370.8,55,364.1,55.1,357.5,55.1z M405,183.7c-4.7,0-8.3-0.1-12,0c-8.3,0.2-13.9,5.4-13.9,13.1c0,8,5.5,13.6,13.8,13.8
		c4.8,0.1,9.6,0,14.4,0c11.9,0,11.9,0,11.8-11.9c0-4.8,2-10.9-0.8-13.9C415.2,181.4,408.9,184.2,405,183.7z"/>
	<path class="st9" d="M291,291.4c-35.1,0-70.2,0-105.4,0c-15.4,0-23.2-7.8-23.2-23.4c0-54.3,0-108.6-0.1-163c0-4.5,0.7-6,5.4-4.1
		c4,1.6,8.4,1.7,12.8,1.7c74.1,0,148.1,0,222.2,0c12.5,0,16.6,4,16.6,16.3c0,15.4-0.1,30.9,0.1,46.3c0,3.5-1,4.6-4.5,4.5
		c-7-0.2-14-0.1-21-0.1c-16,0.1-28.4,11.8-28.6,26.6c-0.2,15.6,12,27.5,28.5,27.9c6.8,0.1,13.7,0.2,20.5,0c3.8-0.1,5.3,0.8,5.2,4.9
		c-0.3,13.9,0,27.9-0.2,41.9c-0.1,12.1-8.2,20.3-20.4,20.3C362.9,291.5,326.9,291.4,291,291.4z M274.1,254.5
		c34.6,0,62.1-27.3,62.1-61.8c0.1-34.7-27.5-62.6-62-62.7c-34.1-0.1-62.6,28.2-62.7,62.4C211.4,226.6,239.4,254.5,274.1,254.5z"/>
	<path class="st9" d="M215.1,87.9c11.8-5.3,23.6-10.6,35.3-16c18.7-8.6,37.5-17.1,56.1-26c4.3-2.1,6.1-1.4,8.2,2.9
		c5.7,12.2,12,24.1,18.1,36.1c1.3,2.5,2,4.5-2.1,4c-0.7-0.1-1.3,0-2,0c-37.8,0-75.6,0-113.3,0C215.3,88.6,215.2,88.3,215.1,87.9z"/>
	<path class="st10" d="M259.3,56c-13.1,5.5-26.2,11.1-39.3,16.5c-12,5-24,9.7-36,14.6c-6.1,2.5-12.1,3.3-17.2-1.6
		c-5-4.8-5.5-10.8-3.2-17c4.3-11.6,9-13.7,18.1-13.5c25.4,0.3,50.9,0.1,76.3,0.1c0.3,0,0.7,0.1,1,0.1
		C259.2,55.5,259.3,55.7,259.3,56z"/>
	<path class="st9" d="M357.5,55.1c6.6,0,13.3-0.1,19.9,0c9.7,0.2,14.7,5.2,14.9,14.8c0.1,5-0.2,10,0.1,14.9c0.2,3.4-1.2,4.2-4.3,4.1
		c-11.6-0.1-23.3-0.1-34.9,0c-2.9,0-4.6-0.8-5.8-3.5c-4.2-8.8-8.6-17.6-13-26.3c-1.7-3.4-0.9-4.3,2.7-4.2
		C343.8,55.2,350.7,55.1,357.5,55.1z"/>
	<path class="st10" d="M405,183.7c3.9,0.6,10.2-2.2,13.3,1.1c2.9,3,0.8,9.2,0.8,13.9c0.1,11.9,0,11.9-11.8,11.9
		c-4.8,0-9.6,0.1-14.4,0c-8.2-0.2-13.8-5.9-13.8-13.8c0-7.6,5.6-12.9,13.9-13.1C396.7,183.6,400.3,183.7,405,183.7z M399.3,190.6
		c-7,0-7,0-7,6.4c0,6.7,0,6.7,6.6,6.7c7.8-0.1,7.2,0.9,7.2-6.1C406,189.7,407,190.6,399.3,190.6z"/>
	<path class="st2" d="M274.1,254.5c-34.7,0-62.7-27.9-62.6-62.2c0.1-34.2,28.6-62.5,62.7-62.4c34.5,0.1,62.1,28,62,62.7
		C336.2,227.2,308.7,254.5,274.1,254.5z M308.3,192.4c0-9.3-0.1-18.6,0.1-27.9c0.1-3-0.7-4.8-3.7-6.1c-9.4-3.8-18.7-7.8-28-11.8
		c-2-0.9-3.5-0.2-5.2,0.5c-9,3.8-18,7.8-27.1,11.4c-2.9,1.2-4.2,2.7-4.1,5.8c0.1,18.9,0.1,37.8,0,56.8c0,2.8,1,4.2,3.5,5.2
		c9.2,3.7,18.4,7.5,27.6,11.4c1.9,0.8,3.7,1.1,5.7,0.3c9.2-3.9,18.3-7.8,27.6-11.5c2.7-1.1,3.7-2.7,3.6-5.7
		C308.2,211.3,308.3,201.8,308.3,192.4z"/>
	<path class="st7" d="M399.3,190.6c7.7,0.1,6.8-0.8,6.8,7c0,7,0.7,6-7.2,6.1c-6.6,0-6.6,0-6.6-6.7
		C392.3,190.6,392.3,190.6,399.3,190.6z"/>
	<path class="st10" d="M308.3,192.4c0,9.5-0.1,18.9,0.1,28.4c0.1,2.9-0.9,4.6-3.6,5.7c-9.2,3.7-18.4,7.6-27.6,11.5
		c-2,0.9-3.8,0.6-5.7-0.3c-9.2-3.9-18.4-7.7-27.6-11.4c-2.5-1-3.5-2.5-3.5-5.2c0.1-18.9,0.1-37.8,0-56.8c0-3.2,1.2-4.7,4.1-5.8
		c9.1-3.6,18.1-7.6,27.1-11.4c1.7-0.7,3.2-1.4,5.2-0.5c9.3,4.1,18.6,8.1,28,11.8c3,1.2,3.8,3,3.7,6.1
		C308.2,173.8,308.3,183.1,308.3,192.4z M249.4,213.8c0.2,2.3-0.6,4.7,2.5,5.9c4.8,1.8,9.5,3.9,14.2,6c3.1,1.4,4.5,0.4,4-2.8
		c-0.8-5,1.5-8.3,5-11.6c6.1-5.6,11.8-11.6,17.6-17.5c2.2-2.2,5.5-3.8,1.5-7.9c-3.8-3.9-5.6-1.2-7.9,1.2
		c-8.2,8.2-16.5,16.3-24.6,24.7c-2.7,2.8-4.6,3.1-7.1,0c-1.1-1.3-2.2-3.6-4.2-2.8C248.5,209.7,249.8,212.2,249.4,213.8z
		 M298.6,176.3c1.9-9.4,1.7-9.8-6.7-13.3c-2.6-1.1-5.3-2.1-7.8-3.3c-3.6-1.8-5.5-1.2-4.9,3.1c0.6,4.1-1.2,6.8-4.1,9.5
		c-6.9,6.5-13.3,13.4-20.2,19.9c-2.6,2.5-3,4-0.2,6.7c2.6,2.5,4.1,2.9,6.7,0.1c8.5-8.9,17.4-17.4,26-26.2c2.4-2.5,4.2-2.7,6.5-0.1
		C295.3,174.2,296.3,176.1,298.6,176.3z M249.5,173.5c0,2.9-0.1,4.9,0,6.9c0.1,1.9,1,3.2,2.7,1.6c5.9-5.6,11.6-11.4,17.2-17.2
		c1.3-1.4,1.2-3.7,0.3-5.2c-1.2-2-3-0.5-4.4,0.1c-2.8,1-5.5,2.4-8.3,3.3C251.1,164.7,247.6,167.8,249.5,173.5z M299.2,202.1
		c-0.8-0.5-1.5-0.9-2.3-1.4c-1.3,1.9-2.4,4-4,5.7c-4,4.2-8.2,8.3-12.3,12.4c-2.1,2.1-2.1,4.9-0.9,6.9c1.2,2,3.2-0.2,4.7-0.8
		c3.9-1.5,7.7-3.1,11.5-4.7c1.5-0.6,3.2-1.1,3.2-3.3C299.2,211.9,299.2,207,299.2,202.1z"/>
	<path class="st7" d="M249.4,213.8c0.4-1.6-1-4,1-4.9c2-0.8,3.1,1.5,4.2,2.8c2.5,3.1,4.4,2.8,7.1,0c8-8.4,16.4-16.4,24.6-24.7
		c2.4-2.4,4.1-5,7.9-1.2c4,4,0.6,5.7-1.5,7.9c-5.8,5.9-11.6,11.9-17.6,17.5c-3.5,3.2-5.8,6.6-5,11.6c0.5,3.2-0.8,4.2-4,2.8
		c-4.7-2.1-9.4-4.2-14.2-6C248.8,218.5,249.6,216.1,249.4,213.8z"/>
	<path class="st2" d="M298.6,176.3c-2.3-0.2-3.3-2.1-4.5-3.5c-2.3-2.6-4.1-2.4-6.5,0.1c-8.6,8.8-17.5,17.3-26,26.2
		c-2.7,2.8-4.1,2.4-6.7-0.1c-2.8-2.7-2.5-4.2,0.2-6.7c6.9-6.5,13.4-13.4,20.2-19.9c2.8-2.7,4.7-5.4,4.1-9.5
		c-0.6-4.3,1.3-4.9,4.9-3.1c2.5,1.3,5.2,2.2,7.8,3.3C300.2,166.5,300.5,167,298.6,176.3z"/>
	<path class="st7" d="M249.5,173.5c-1.8-5.7,1.6-8.9,7.5-10.6c2.8-0.9,5.5-2.3,8.3-3.3c1.4-0.5,3.2-2,4.4-0.1c0.9,1.5,1,3.8-0.3,5.2
		c-5.6,5.9-11.4,11.6-17.2,17.2c-1.7,1.6-2.7,0.4-2.7-1.6C249.4,178.4,249.5,176.4,249.5,173.5z"/>
	<path class="st7" d="M299.2,202.1c0,4.9,0,9.8,0,14.7c0,2.2-1.7,2.6-3.2,3.3c-3.8,1.6-7.6,3.3-11.5,4.7c-1.5,0.6-3.6,2.8-4.7,0.8
		c-1.2-2-1.2-4.8,0.9-6.9c4.1-4.1,8.3-8.1,12.3-12.4c1.6-1.7,2.7-3.8,4-5.7C297.7,201.2,298.4,201.7,299.2,202.1z"/>
</g>
</svg>
